<svg width="50" height="50" version="1.1" xmlns="http://www.w3.org/2000/svg" desc="Created with imagetracer.js version 1.2.6" ><path fill="rgb(0,0,0)" stroke="rgb(0,0,0)" stroke-width="1" opacity="0" d="M 0 0 L 50 0 L 50 50 L 0 50 L 0 0 Z M 21 4 L 17 8 L 19 10 L 13 13 L 6 24 Q 4 35 9 40 Q 13 45 20 47 Q 31 49 37 44 Q 42 40 44 34 Q 46 21 40 16 L 32 10 L 33 8 Q 30 2 21 4 Z " /><path fill="rgb(0,0,0)" stroke="rgb(0,0,0)" stroke-width="1" opacity="0" d="M 22.5 14 Q 33.4 13.6 37 20.5 Q 39.9 24.1 39 31.5 L 32.5 40 Q 29.2 43.2 21.5 42 L 13 35.5 Q 10 32.5 11 25.5 Q 12.5 19 17.5 16 L 22.5 14 Z " /><path fill="rgb(18,153,224)" stroke="rgb(18,153,224)" stroke-width="1" opacity="0.8980392156862745" d="M 20.5 4 Q 30.3 2.3 33 7.5 L 24.5 14 L 17 7.5 L 20.5 4 Z " /><path fill="rgb(255,180,2)" stroke="rgb(255,180,2)" stroke-width="1" opacity="0.9764705882352941" d="M 19.5 10 L 22.5 14 L 19 11.5 L 19.5 10 Z " /><path fill="rgb(255,180,2)" stroke="rgb(255,180,2)" stroke-width="1" opacity="0.9764705882352941" d="M 29.5 11 L 31 11.5 L 27.5 14 L 29.5 11 Z " /><path fill="rgb(255,180,2)" stroke="rgb(255,180,2)" stroke-width="1" opacity="0.9764705882352941" d="M 39.5 24 L 40 26.5 L 39 26.5 L 39.5 24 Z " /><path fill="rgb(255,180,2)" stroke="rgb(255,180,2)" stroke-width="1" opacity="0.9764705882352941" d="M 10.5 30 Q 11.4 38.1 17.5 41 Q 20.8 43.7 27.5 43 Q 34.7 41.2 38 35.5 L 39.5 31 L 40 33.5 L 33.5 42 Q 29.5 45 21.5 44 Q 15 42.5 12 37.5 Q 9 34.8 10.5 30 Z " /><path fill="rgb(255,201,38)" stroke="rgb(255,201,38)" stroke-width="1" opacity="0.984313725490196" d="M 17.5 11 L 21 13.5 Q 14.2 15.7 11 21.5 Q 8.3 24.8 9 31.5 L 14.5 41 L 19.5 44 L 24.5 45 L 32.5 43 L 37 39.5 L 41 31.5 L 41 26.5 Q 38.9 18.6 32.5 15 L 29 13.5 L 32.5 11 L 41 18.5 Q 44.8 23.2 43 33.5 L 36.5 43 L 30.5 46 L 24.5 47 L 16.5 45 L 10 39.5 Q 5.2 34.3 7 22.5 L 15.5 12 L 17.5 11 Z " /><path fill="rgb(255,195,29)" stroke="rgb(255,195,29)" stroke-width="1" opacity="0.6745098039215687" d="M 13.5 13 L 10.5 17 L 13.5 13 Z " /><path fill="rgb(255,195,29)" stroke="rgb(255,195,29)" stroke-width="1" opacity="0.6745098039215687" d="M 36.5 13 L 39.5 17 L 36.5 13 Z " /><path fill="rgb(255,195,29)" stroke="rgb(255,195,29)" stroke-width="1" opacity="0.6745098039215687" d="M 13.5 19 L 12.5 21 L 13.5 19 Z " /><path fill="rgb(255,195,29)" stroke="rgb(255,195,29)" stroke-width="1" opacity="0.6745098039215687" d="M 6.5 25 L 7 30.5 L 6 30.5 L 6.5 25 Z " /><path fill="rgb(255,195,29)" stroke="rgb(255,195,29)" stroke-width="1" opacity="0.6745098039215687" d="M 43.5 25 L 44 30.5 L 43 30.5 L 43.5 25 Z " /><path fill="rgb(255,195,29)" stroke="rgb(255,195,29)" stroke-width="1" opacity="0.6745098039215687" d="M 39.5 27 L 40 29.5 L 39 29.5 L 39.5 27 Z " /><path fill="rgb(255,195,29)" stroke="rgb(255,195,29)" stroke-width="1" opacity="0.6745098039215687" d="M 22.5 42 L 28 42.5 L 22.5 43 L 22.5 42 Z " /><path fill="rgb(255,195,29)" stroke="rgb(255,195,29)" stroke-width="1" opacity="0.6745098039215687" d="M 21.5 46 L 24 46.5 L 21.5 47 L 21.5 46 Z " /><path fill="rgb(255,195,29)" stroke="rgb(255,195,29)" stroke-width="1" opacity="0.6745098039215687" d="M 26.5 46 L 29 46.5 L 26.5 47 L 26.5 46 Z " /><path fill="rgb(253,185,14)" stroke="rgb(253,185,14)" stroke-width="1" opacity="0.996078431372549" d="M 20.5 10 L 22.5 13 L 20.5 10 Z " /><path fill="rgb(253,185,14)" stroke="rgb(253,185,14)" stroke-width="1" opacity="0.996078431372549" d="M 29.5 10 L 31 10.5 L 27.5 13 L 29.5 10 Z " /><path fill="rgb(253,185,14)" stroke="rgb(253,185,14)" stroke-width="1" opacity="0.996078431372549" d="M 37.5 20 L 40 23.5 L 38 22.5 L 37.5 20 Z " /><path fill="rgb(253,185,14)" stroke="rgb(253,185,14)" stroke-width="1" opacity="0.996078431372549" d="M 11.5 21 L 12 22.5 L 10 23.5 L 11.5 21 Z " /><path fill="rgb(253,185,14)" stroke="rgb(253,185,14)" stroke-width="1" opacity="0.996078431372549" d="M 10.5 25 L 11 26.5 L 10 28.5 L 10 30.5 L 9.5 32 L 9 26.5 L 10.5 25 Z " /><path fill="rgb(253,185,14)" stroke="rgb(253,185,14)" stroke-width="1" opacity="0.996078431372549" d="M 40.5 26 L 41 31.5 L 39 30.5 L 40.5 26 Z " /><path fill="rgb(253,185,14)" stroke="rgb(253,185,14)" stroke-width="1" opacity="0.996078431372549" d="M 13.5 39 L 14.5 41 L 13.5 39 Z " /><path fill="rgb(253,185,14)" stroke="rgb(253,185,14)" stroke-width="1" opacity="0.996078431372549" d="M 36.5 39 L 35.5 41 L 36.5 39 Z " /><path fill="rgb(255,198,33)" stroke="rgb(255,198,33)" stroke-width="1" opacity="0.2" d="M 15.5 11 L 14.5 13 L 15.5 11 Z " /><path fill="rgb(255,198,33)" stroke="rgb(255,198,33)" stroke-width="1" opacity="0.2" d="M 34.5 11 L 35.5 13 L 34.5 11 Z " /><path fill="rgb(255,198,33)" stroke="rgb(255,198,33)" stroke-width="1" opacity="0.2" d="M 12.5 13 L 10.5 16 L 12.5 13 Z " /><path fill="rgb(255,198,33)" stroke="rgb(255,198,33)" stroke-width="1" opacity="0.2" d="M 37.5 13 L 39.5 16 L 37.5 13 Z " /><path fill="rgb(255,198,33)" stroke="rgb(255,198,33)" stroke-width="1" opacity="0.2" d="M 16.5 16 L 14.5 19 L 16.5 16 Z " /><path fill="rgb(255,198,33)" stroke="rgb(255,198,33)" stroke-width="1" opacity="0.2" d="M 33.5 16 L 35.5 19 L 33.5 16 Z " /><path fill="rgb(255,198,33)" stroke="rgb(255,198,33)" stroke-width="1" opacity="0.2" d="M 9.5 17 L 8.5 19 L 9.5 17 Z " /><path fill="rgb(255,198,33)" stroke="rgb(255,198,33)" stroke-width="1" opacity="0.2" d="M 40.5 17 L 41.5 19 L 40.5 17 Z " /><path fill="rgb(255,198,33)" stroke="rgb(255,198,33)" stroke-width="1" opacity="0.2" d="M 6.5 31 L 7 33.5 L 6 33.5 L 6.5 31 Z " /><path fill="rgb(255,198,33)" stroke="rgb(255,198,33)" stroke-width="1" opacity="0.2" d="M 43.5 31 L 44 33.5 L 43 33.5 L 43.5 31 Z " /><path fill="rgb(255,198,33)" stroke="rgb(255,198,33)" stroke-width="1" opacity="0.2" d="M 13.5 36 L 16.5 40 L 13.5 36 Z " /><path fill="rgb(255,198,33)" stroke="rgb(255,198,33)" stroke-width="1" opacity="0.2" d="M 36.5 36 L 33.5 40 L 36.5 36 Z " /><path fill="rgb(255,198,33)" stroke="rgb(255,198,33)" stroke-width="1" opacity="0.2" d="M 9.5 39 L 13.5 44 L 9.5 39 Z " /><path fill="rgb(255,198,33)" stroke="rgb(255,198,33)" stroke-width="1" opacity="0.2" d="M 40.5 39 L 36.5 44 L 40.5 39 Z " /></svg>