<svg width="50" height="50" version="1.1" xmlns="http://www.w3.org/2000/svg" desc="Created with imagetracer.js version 1.2.6" ><path fill="rgb(179,190,229)" stroke="rgb(179,190,229)" stroke-width="1" opacity="0.21176470588235294" d="M 21.5 6 L 25 6.5 L 21.5 7 L 21.5 6 Z " /><path fill="rgb(179,190,229)" stroke="rgb(179,190,229)" stroke-width="1" opacity="0.21176470588235294" d="M 10.5 10 L 9.5 12 L 10.5 10 Z " /><path fill="rgb(179,190,229)" stroke="rgb(179,190,229)" stroke-width="1" opacity="0.21176470588235294" d="M 27.5 15 L 28 17.5 L 27 17.5 L 27.5 15 Z " /><path fill="rgb(179,190,229)" stroke="rgb(179,190,229)" stroke-width="1" opacity="0.21176470588235294" d="M 26.5 20 L 28 27.5 L 26 26.5 L 26.5 20 Z " /><path fill="rgb(179,190,229)" stroke="rgb(179,190,229)" stroke-width="1" opacity="0.21176470588235294" d="M 6 22 L 8 22.5 L 6 23.5 L 6 22 Z " /><path fill="rgb(179,190,229)" stroke="rgb(179,190,229)" stroke-width="1" opacity="0.21176470588235294" d="M 6.5 29 L 7 31.5 L 6 31.5 L 6.5 29 Z " /><path fill="rgb(179,190,229)" stroke="rgb(179,190,229)" stroke-width="1" opacity="0.21176470588235294" d="M 39.5 34 L 43 38.5 L 41 37.5 L 39.5 34 Z " /><path fill="rgb(196,201,232)" stroke="rgb(196,201,232)" stroke-width="1" opacity="0.7843137254901961" d="M 25.5 6 Q 31.4 3.9 30 8.5 L 29 8.5 Q 29.9 5.5 25.5 7 L 25.5 6 Z " /><path fill="rgb(196,201,232)" stroke="rgb(196,201,232)" stroke-width="1" opacity="0.7843137254901961" d="M 8.5 12 L 9 14.5 L 8 14.5 L 8.5 12 Z " /><path fill="rgb(196,201,232)" stroke="rgb(196,201,232)" stroke-width="1" opacity="0.7843137254901961" d="M 26.5 27 L 28 29.5 L 27 29.5 L 26.5 27 Z " /><path fill="rgb(0,0,0)" stroke="rgb(0,0,0)" stroke-width="1" opacity="0" d="M 0 0 L 50 0 L 50 50 L 0 50 L 0 0 Z M 22 6 L 11 10 L 8 13 L 6 20 L 8 20 Q 9 23 6 23 L 6 28 L 6 30 L 7 33 L 6 35 L 7 43 L 9 44 L 44 44 L 42 37 Q 38 31 29 31 L 27 27 L 27 19 L 31 7 L 22 6 Z " /><path fill="rgb(196,201,232)" stroke="rgb(196,201,232)" stroke-width="1" opacity="1" d="M 13.5 18 L 12.5 20 L 13.5 18 Z " /><path fill="rgb(196,201,232)" stroke="rgb(196,201,232)" stroke-width="1" opacity="1" d="M 17.5 19 L 19 19.5 L 17 20 L 16.5 22 L 16 20.5 L 17.5 19 Z " /><path fill="rgb(196,201,232)" stroke="rgb(196,201,232)" stroke-width="1" opacity="1" d="M 8.5 22 Q 13.3 21.3 14 24.5 L 11.5 28 L 8 27.5 L 13 25.5 L 11.5 23 Q 7.5 23.7 8.5 22 Z " /><path fill="rgb(196,201,232)" stroke="rgb(196,201,232)" stroke-width="1" opacity="1" d="M 17.5 23 L 17 24.5 L 18 26.5 L 16 25.5 L 17.5 23 Z " /><path fill="rgb(196,201,232)" stroke="rgb(196,201,232)" stroke-width="1" opacity="1" d="M 16.5 28 L 17 30 L 19 30.5 L 17.5 31 L 16.5 28 Z " /><path fill="rgb(196,201,232)" stroke="rgb(196,201,232)" stroke-width="1" opacity="1" d="M 15.5 35 L 16.5 37 L 15.5 35 Z " /><path fill="rgb(197,202,233)" stroke="rgb(197,202,233)" stroke-width="1" opacity="1" d="M 21.5 7 L 28.5 7 L 29 9.5 L 26 18.5 L 26 27.5 L 27 29.5 L 19.5 39 Q 15 40 14 37.5 L 13 34 L 7 30.5 L 8.5 28 Q 13.3 28.8 14 25.5 L 11.5 22 L 8 21.5 L 14 18.5 L 11.5 15 Q 7.3 16.1 9 12 L 21.5 7 Z M 16 11 Q 15 16 19 14 Q 21 10 16 11 Z M 16 15 Q 15 20 19 18 Q 21 14 16 15 Z M 18 19 L 16 21 Q 15 24 19 22 Q 20 18 18 19 Z M 18 23 L 16 26 Q 18 29 19 26 L 18 23 Z M 16 28 L 16 30 L 19 31 Q 21 27 16 28 Z M 17 32 L 15 34 L 17 37 L 20 36 Q 22 30 17 32 Z " /><path fill="rgb(158,166,217)" stroke="rgb(158,166,217)" stroke-width="1" opacity="0.7254901960784313" d="M 6.5 35 L 7 39.5 L 6 39.5 L 6.5 35 Z " /><path fill="rgb(158,166,217)" stroke="rgb(158,166,217)" stroke-width="1" opacity="0.7254901960784313" d="M 43.5 42 L 44 44 L 34 43.5 L 42.5 43 L 43.5 42 Z " /><path fill="rgb(158,166,217)" stroke="rgb(158,166,217)" stroke-width="1" opacity="0.7254901960784313" d="M 8.5 43 L 27 43.5 L 8.5 44 L 8.5 43 Z " /><path fill="rgb(158,166,217)" stroke="rgb(158,166,217)" stroke-width="1" opacity="0.7254901960784313" d="M 29.5 43 L 32 43.5 L 29.5 44 L 29.5 43 Z " /><path fill="rgb(124,137,204)" stroke="rgb(124,137,204)" stroke-width="1" opacity="0.9764705882352941" d="M 7 16 Q 11.6 14.8 13 17.5 Q 11.7 21 7 20 L 7 16 Z " /><path fill="rgb(124,137,204)" stroke="rgb(124,137,204)" stroke-width="1" opacity="0.9764705882352941" d="M 7.5 23 Q 12 22 13 24.5 L 11.5 27 L 6 27 L 6 24.5 L 7.5 23 Z " /><path fill="rgb(124,137,204)" stroke="rgb(124,137,204)" stroke-width="1" opacity="0.9764705882352941" d="M 26.5 31 L 29 31.5 L 21.5 41 L 16.5 42 L 12 40 L 9.5 35 L 7 33.5 L 9.5 33 L 14.5 39 L 18.5 40 L 23 36.5 Q 22.5 31.5 26.5 31 Z " /><path fill="rgb(124,137,204)" stroke="rgb(124,137,204)" stroke-width="1" opacity="0.9764705882352941" d="M 32.5 32 Q 34.8 31.3 34 33.5 Q 29.1 36.9 29 44 Q 26 45.3 27 41.5 Q 27.9 34.9 32.5 32 Z " /><path fill="rgb(124,137,204)" stroke="rgb(124,137,204)" stroke-width="1" opacity="0.9764705882352941" d="M 16 33 Q 20.5 31.5 19 36 Q 14.5 37.5 16 33 Z " /><path fill="rgb(124,137,204)" stroke="rgb(124,137,204)" stroke-width="1" opacity="0.9764705882352941" d="M 38.5 34 L 39.5 36 L 36 38.5 L 33.5 44 Q 31.3 44.8 32 42.5 L 36.5 35 L 38.5 34 Z " /><path fill="rgb(157,166,217)" stroke="rgb(157,166,217)" stroke-width="1" opacity="0.996078431372549" d="M 18.5 16 L 17.5 18 L 18.5 16 Z " /><path fill="rgb(157,166,217)" stroke="rgb(157,166,217)" stroke-width="1" opacity="0.996078431372549" d="M 12.5 18 L 11.5 20 L 12.5 18 Z " /><path fill="rgb(157,166,217)" stroke="rgb(157,166,217)" stroke-width="1" opacity="0.996078431372549" d="M 31.5 32 L 29.5 35 L 31.5 32 Z " /><path fill="rgb(157,166,217)" stroke="rgb(157,166,217)" stroke-width="1" opacity="0.996078431372549" d="M 34.5 33 L 36 33.5 L 31.5 37 L 34.5 33 Z " /><path fill="rgb(157,166,217)" stroke="rgb(157,166,217)" stroke-width="1" opacity="0.996078431372549" d="M 11.5 34 L 12.5 36 L 11.5 34 Z " /><path fill="rgb(157,166,217)" stroke="rgb(157,166,217)" stroke-width="1" opacity="0.996078431372549" d="M 9.5 35 L 10.5 37 L 9.5 35 Z " /><path fill="rgb(157,166,217)" stroke="rgb(157,166,217)" stroke-width="1" opacity="0.996078431372549" d="M 35.5 35 L 34.5 37 L 35.5 35 Z " /><path fill="rgb(157,166,217)" stroke="rgb(157,166,217)" stroke-width="1" opacity="0.996078431372549" d="M 38.5 36 L 40 36.5 L 36.5 39 L 38.5 36 Z " /><path fill="rgb(157,166,217)" stroke="rgb(157,166,217)" stroke-width="1" opacity="0.996078431372549" d="M 16.5 39 L 19 39.5 L 16.5 40 L 16.5 39 Z " /><path fill="rgb(157,166,217)" stroke="rgb(157,166,217)" stroke-width="1" opacity="0.996078431372549" d="M 23.5 39 L 22.5 41 L 23.5 39 Z " /><path fill="rgb(157,166,217)" stroke="rgb(157,166,217)" stroke-width="1" opacity="0.996078431372549" d="M 13.5 40 L 16 41.5 L 14.5 42 L 13.5 40 Z " /><path fill="rgb(159,168,218)" stroke="rgb(159,168,218)" stroke-width="1" opacity="1" d="M 17.5 11 L 17.5 14 Q 14.5 12.5 17.5 11 Z " /><path fill="rgb(159,168,218)" stroke="rgb(159,168,218)" stroke-width="1" opacity="1" d="M 17.5 15 L 16.5 17 L 17.5 15 Z " /><path fill="rgb(159,168,218)" stroke="rgb(159,168,218)" stroke-width="1" opacity="1" d="M 12.5 16 L 13.5 18 L 12.5 16 Z " /><path fill="rgb(159,168,218)" stroke="rgb(159,168,218)" stroke-width="1" opacity="1" d="M 26.5 30 L 23.5 34 L 26.5 30 Z " /><path fill="rgb(159,168,218)" stroke="rgb(159,168,218)" stroke-width="1" opacity="1" d="M 28.5 32 L 31 32.5 Q 26.7 35.9 27 43 L 8.5 43 L 8 40.5 L 7 35 L 11 37.5 L 14.5 42 Q 21.8 43.3 24 39.5 L 28.5 32 Z " /><path fill="rgb(159,168,218)" stroke="rgb(159,168,218)" stroke-width="1" opacity="1" d="M 34.5 34 L 37 34.5 L 34 36.5 L 32 43 Q 28.7 44.3 30 39.5 L 34.5 34 Z " /><path fill="rgb(159,168,218)" stroke="rgb(159,168,218)" stroke-width="1" opacity="1" d="M 13.5 37 L 14.5 39 L 13.5 37 Z " /><path fill="rgb(159,168,218)" stroke="rgb(159,168,218)" stroke-width="1" opacity="1" d="M 21.5 37 L 20.5 39 L 21.5 37 Z " /><path fill="rgb(159,168,218)" stroke="rgb(159,168,218)" stroke-width="1" opacity="1" d="M 38.5 37 Q 41.8 35.9 41 38.5 L 43 43 L 35.5 43 L 35 41.5 L 38.5 37 Z " /></svg>