<svg width="50" height="50" version="1.1" xmlns="http://www.w3.org/2000/svg" desc="Created with imagetracer.js version 1.2.6" ><path fill="rgb(187,192,230)" stroke="rgb(187,192,230)" stroke-width="1" opacity="0.3215686274509804" d="M 21.5 5 L 24 5.5 L 21.5 6 L 21.5 5 Z " /><path fill="rgb(187,192,230)" stroke="rgb(187,192,230)" stroke-width="1" opacity="0.3215686274509804" d="M 11.5 7 L 14 7.5 L 11.5 8 L 11.5 7 Z " /><path fill="rgb(187,192,230)" stroke="rgb(187,192,230)" stroke-width="1" opacity="0.3215686274509804" d="M 8.5 28 L 9 30.5 L 8 30.5 L 8.5 28 Z " /><path fill="rgb(187,192,230)" stroke="rgb(187,192,230)" stroke-width="1" opacity="0.3215686274509804" d="M 10.5 34 L 16.5 41 L 10.5 34 Z " /><path fill="rgb(187,192,230)" stroke="rgb(187,192,230)" stroke-width="1" opacity="0.3215686274509804" d="M 39.5 34 L 37.5 37 L 39.5 34 Z " /><path fill="rgb(187,192,230)" stroke="rgb(187,192,230)" stroke-width="1" opacity="0.3215686274509804" d="M 35.5 38 L 33.5 41 L 35.5 38 Z " /><path fill="rgb(187,192,230)" stroke="rgb(187,192,230)" stroke-width="1" opacity="0.3215686274509804" d="M 18.5 41 L 19.5 43 L 18.5 41 Z " /><path fill="rgb(230,141,146)" stroke="rgb(230,141,146)" stroke-width="1" opacity="1" d="M 12.5 12 L 13 27.5 L 12 27.5 L 12.5 12 Z " /><path fill="rgb(230,141,146)" stroke="rgb(230,141,146)" stroke-width="1" opacity="1" d="M 37.5 14 L 38 18.5 L 37 18.5 L 37.5 14 Z " /><path fill="rgb(230,141,146)" stroke="rgb(230,141,146)" stroke-width="1" opacity="1" d="M 18.5 15 L 17.5 17 L 18.5 15 Z " /><path fill="rgb(230,141,146)" stroke="rgb(230,141,146)" stroke-width="1" opacity="1" d="M 15.5 33 L 17.5 36 L 15.5 33 Z " /><path fill="rgb(197,113,134)" stroke="rgb(197,113,134)" stroke-width="1" opacity="1" d="M 35.5 32 L 34.5 34 L 35.5 32 Z " /><path fill="rgb(197,113,134)" stroke="rgb(197,113,134)" stroke-width="1" opacity="1" d="M 32.5 35 L 31.5 37 L 32.5 35 Z " /><path fill="rgb(151,158,211)" stroke="rgb(151,158,211)" stroke-width="1" opacity="1" d="M 33.5 9 L 32.5 11 L 31 10.5 L 33.5 9 Z " /><path fill="rgb(151,158,211)" stroke="rgb(151,158,211)" stroke-width="1" opacity="1" d="M 38.5 11 L 39.5 13 L 38.5 11 Z " /><path fill="rgb(151,158,211)" stroke="rgb(151,158,211)" stroke-width="1" opacity="1" d="M 39.5 16 L 39 17.5 L 38.5 19 L 38 17.5 L 39.5 16 Z " /><path fill="rgb(151,158,211)" stroke="rgb(151,158,211)" stroke-width="1" opacity="1" d="M 37.5 29 L 38.5 31 L 39.5 29 L 40 30.5 Q 38.5 33.5 37 30.5 L 37.5 29 Z " /><path fill="rgb(151,158,211)" stroke="rgb(151,158,211)" stroke-width="1" opacity="1" d="M 36.5 35 L 35.5 37 L 36.5 35 Z " /><path fill="rgb(151,158,211)" stroke="rgb(151,158,211)" stroke-width="1" opacity="1" d="M 30.5 37 L 32 39.5 L 29.5 41 L 29.5 40 L 31 39.5 L 29 38.5 L 30.5 37 Z " /><path fill="rgb(196,202,232)" stroke="rgb(196,202,232)" stroke-width="1" opacity="0.7176470588235294" d="M 9.5 8 L 11 8.5 L 9 9 L 8.5 28 L 8 9.5 L 9.5 8 Z " /><path fill="rgb(196,202,232)" stroke="rgb(196,202,232)" stroke-width="1" opacity="0.7176470588235294" d="M 10.5 33 L 11.5 35 L 10.5 33 Z " /><path fill="rgb(196,202,232)" stroke="rgb(196,202,232)" stroke-width="1" opacity="0.7176470588235294" d="M 16.5 39 L 17.5 41 L 16.5 39 Z " /><path fill="rgb(236,62,53)" stroke="rgb(236,62,53)" stroke-width="1" opacity="1" d="M 22.5 10 L 28.5 10 L 37 12 L 33.5 17 L 15.5 29 L 13 29 L 13 12.5 Q 13 11.5 17.5 12 L 22.5 10 Z M 19 15 L 16 18 L 18 21 L 21 19 L 20 17 Q 21 14 19 15 Z " /><path fill="rgb(236,62,53)" stroke="rgb(236,62,53)" stroke-width="1" opacity="1" d="M 35.5 20 L 37 20.5 L 37 29.5 L 29.5 38 L 24.5 40 L 16 33.5 L 35.5 20 Z M 32 27 L 29 31 Q 32 36 34 31 L 32 27 Z " /><path fill="rgb(254,249,248)" stroke="rgb(254,249,248)" stroke-width="1" opacity="0.9568627450980393" d="M 18.5 16 L 20 19 L 17 17.5 L 18.5 16 Z " /><path fill="rgb(254,249,248)" stroke="rgb(254,249,248)" stroke-width="1" opacity="0.9568627450980393" d="M 23.5 24 Q 26.1 23.2 25 26.5 L 15.5 33 L 14 30.5 L 23.5 24 Z " /><path fill="rgb(160,168,217)" stroke="rgb(160,168,217)" stroke-width="1" opacity="0.996078431372549" d="M 25.5 6 L 39.5 8 L 41 9.5 L 38 11.5 L 41 12.5 L 40.5 17 L 38 16.5 Q 39 12 36.5 11 L 33 10.5 Q 35.3 9.3 32.5 8 Q 29.9 7.3 31 10 L 27.5 10 L 24 7.5 L 25.5 6 Z " /><path fill="rgb(160,168,217)" stroke="rgb(160,168,217)" stroke-width="1" opacity="0.996078431372549" d="M 17.5 8 L 19.5 11 L 17 10 L 17.5 8 Z " /><path fill="rgb(160,168,217)" stroke="rgb(160,168,217)" stroke-width="1" opacity="0.996078431372549" d="M 9.5 17 Q 11.8 16.3 11 18.5 L 9.5 17 Z " /><path fill="rgb(160,168,217)" stroke="rgb(160,168,217)" stroke-width="1" opacity="0.996078431372549" d="M 38 19 Q 42.9 17.4 41 23 Q 36.1 24.6 38 19 Z " /><path fill="rgb(160,168,217)" stroke="rgb(160,168,217)" stroke-width="1" opacity="0.996078431372549" d="M 38 25 Q 43.3 23.2 41 30.5 L 33.5 40 L 25 44 L 26.5 40 L 28.5 39 L 29 41 L 32 39.5 L 31 37.5 L 33.5 35 Q 35.3 38.8 37 35.5 Q 33.5 34 36 32.5 Q 35.3 30.3 37.5 31 Q 38.8 33.3 40 30.5 Q 40.7 27.9 38 29 L 38 25 Z " /><path fill="rgb(160,168,217)" stroke="rgb(160,168,217)" stroke-width="1" opacity="0.996078431372549" d="M 14.5 34 L 15.5 36 Q 12.7 36.7 14.5 34 Z " /><path fill="rgb(231,91,89)" stroke="rgb(231,91,89)" stroke-width="1" opacity="1" d="M 37.5 12 L 38 13.5 L 35 15.5 L 37.5 12 Z " /><path fill="rgb(231,91,89)" stroke="rgb(231,91,89)" stroke-width="1" opacity="1" d="M 36.5 19 L 38 19.5 L 38 26.5 L 37 26.5 Q 37.5 20.5 36.5 19 Z " /><path fill="rgb(231,91,89)" stroke="rgb(231,91,89)" stroke-width="1" opacity="1" d="M 33.5 30 L 32.5 32 L 33.5 30 Z " /><path fill="rgb(231,91,89)" stroke="rgb(231,91,89)" stroke-width="1" opacity="1" d="M 19.5 36 L 20.5 38 L 19.5 36 Z " /><path fill="rgb(253,199,203)" stroke="rgb(253,199,203)" stroke-width="1" opacity="1" d="M 36.5 15 L 37 18.5 L 25 26 L 24 23.5 L 36.5 15 Z " /><path fill="rgb(253,199,203)" stroke="rgb(253,199,203)" stroke-width="1" opacity="1" d="M 19.5 16 L 20.5 18 L 19.5 16 Z " /><path fill="rgb(253,199,203)" stroke="rgb(253,199,203)" stroke-width="1" opacity="1" d="M 17.5 18 L 18.5 20 L 17.5 18 Z " /><path fill="rgb(253,199,203)" stroke="rgb(253,199,203)" stroke-width="1" opacity="1" d="M 31.5 28 L 33 30.5 L 30 32 L 31.5 28 Z " /><path fill="rgb(168,175,220)" stroke="rgb(168,175,220)" stroke-width="1" opacity="0.8862745098039215" d="M 40.5 8 L 42 9.5 L 42 26.5 L 41 26.5 L 41 9.5 L 40.5 8 Z " /><path fill="rgb(0,0,0)" stroke="rgb(0,0,0)" stroke-width="1" opacity="0" d="M 0 0 L 50 0 L 50 50 L 0 50 L 0 0 Z M 22 5 L 8 8 L 8 31 L 10 35 Q 15 41 24 45 L 27 45 L 34 41 L 42 31 L 42 8 L 29 5 L 22 5 Z " /><path fill="rgb(194,198,231)" stroke="rgb(194,198,231)" stroke-width="1" opacity="0.996078431372549" d="M 21.5 6 L 25 6.5 L 23.5 10 L 12 12 L 12 27.5 L 18.5 37 L 25 40 L 25 44 L 23.5 44 L 12 35.5 Q 6.7 30.8 9 18.5 L 11 18.5 Q 11.7 15.9 9 17 L 9 12 L 11 11.5 L 9 11 Q 7.9 8.3 10.5 9 L 21.5 6 Z M 18 8 Q 16 11 19 10 L 18 8 Z M 15 34 Q 13 37 16 36 L 15 34 Z " /><path fill="rgb(134,142,204)" stroke="rgb(134,142,204)" stroke-width="1" opacity="1" d="M 32.5 8 L 33 10 L 31 9.5 L 32.5 8 Z " /><path fill="rgb(134,142,204)" stroke="rgb(134,142,204)" stroke-width="1" opacity="1" d="M 39.5 10 L 40.5 12 Q 37.7 12.7 39.5 10 Z " /><path fill="rgb(134,142,204)" stroke="rgb(134,142,204)" stroke-width="1" opacity="1" d="M 39 17 L 41 17.5 L 39 18.5 L 39 17 Z " /><path fill="rgb(134,142,204)" stroke="rgb(134,142,204)" stroke-width="1" opacity="1" d="M 35.5 34 L 36 36 L 34 35.5 L 35.5 34 Z " /></svg>