<svg width="50" height="50" version="1.1" xmlns="http://www.w3.org/2000/svg" desc="Created with imagetracer.js version 1.2.6" ><path fill="rgb(0,0,0)" stroke="rgb(0,0,0)" stroke-width="1" opacity="0" d="M 0 0 L 50 0 L 50 50 L 0 50 L 0 0 Z M 25 4 L 15 11 L 8 12 Q 7 30 16 40 L 24 46 Q 28 47 30 44 Q 43 34 42 12 L 36 11 L 25 4 Z " /><path fill="rgb(121,85,72)" stroke="rgb(121,85,72)" stroke-width="1" opacity="0.43137254901960786" d="M 24.5 4 Q 29.8 9.2 38 11.5 L 35.5 12 L 24.5 5 L 17.5 10 L 18.5 8 L 24.5 4 Z " /><path fill="rgb(121,85,72)" stroke="rgb(121,85,72)" stroke-width="1" opacity="0.43137254901960786" d="M 8 12 L 11 12.5 L 9 13 L 8.5 21 L 8 12 Z " /><path fill="rgb(121,85,72)" stroke="rgb(121,85,72)" stroke-width="1" opacity="0.43137254901960786" d="M 39.5 12 L 42 12.5 L 42 20.5 L 41 20.5 L 41 13.5 L 39.5 13 L 39.5 12 Z " /><path fill="rgb(121,85,72)" stroke="rgb(121,85,72)" stroke-width="1" opacity="0.43137254901960786" d="M 9.5 22 Q 11.4 35.1 19.5 42 L 23.5 45 L 26.5 45 L 34 38.5 L 38.5 30 L 39 31.5 Q 35.8 39.3 29.5 44 Q 28.1 46.6 23.5 46 L 16 39.5 Q 9.5 33 9.5 22 Z " /><path fill="rgb(121,85,72)" stroke="rgb(121,85,72)" stroke-width="1" opacity="0.43137254901960786" d="M 40.5 22 L 41 25.5 L 40 25.5 L 40.5 22 Z " /><path fill="rgb(126,90,69)" stroke="rgb(126,90,69)" stroke-width="1" opacity="0.996078431372549" d="M 24 8 L 26 8.5 L 23 10.5 L 24 8 Z " /><path fill="rgb(126,90,69)" stroke="rgb(126,90,69)" stroke-width="1" opacity="0.996078431372549" d="M 26.5 10 L 27.5 12 L 26.5 10 Z " /><path fill="rgb(126,90,69)" stroke="rgb(126,90,69)" stroke-width="1" opacity="0.996078431372549" d="M 21.5 11 L 20.5 13 L 21.5 11 Z " /><path fill="rgb(126,90,69)" stroke="rgb(126,90,69)" stroke-width="1" opacity="0.996078431372549" d="M 11.5 13 L 12 15.5 L 11 15.5 L 11.5 13 Z " /><path fill="rgb(126,90,69)" stroke="rgb(126,90,69)" stroke-width="1" opacity="0.996078431372549" d="M 12.5 29 L 14 31.5 L 12 30.5 L 12.5 29 Z " /><path fill="rgb(126,90,69)" stroke="rgb(126,90,69)" stroke-width="1" opacity="0.996078431372549" d="M 37.5 29 L 38 30.5 L 36 31.5 L 37.5 29 Z " /><path fill="rgb(126,90,69)" stroke="rgb(126,90,69)" stroke-width="1" opacity="0.996078431372549" d="M 17.5 33 L 18.5 35 L 17.5 33 Z " /><path fill="rgb(126,90,69)" stroke="rgb(126,90,69)" stroke-width="1" opacity="0.996078431372549" d="M 31.5 35 L 25.5 42 L 24 41.5 L 31.5 35 Z " /><path fill="rgb(126,90,69)" stroke="rgb(126,90,69)" stroke-width="1" opacity="0.996078431372549" d="M 19.5 36 L 22.5 40 L 19.5 36 Z " /><path fill="rgb(121,85,72)" stroke="rgb(121,85,72)" stroke-width="1" opacity="1" d="M 24.5 5 Q 29.9 10.6 39 12.5 L 38 16 Q 43.3 14.2 41 21.5 L 38.5 30 L 35 28.5 L 38 16.5 L 25 9.5 L 26 6 Q 22.7 4.7 24 9.5 L 12 16.5 L 15 29 Q 9.8 31.1 11 26.5 Q 8.1 22.6 9 16 Q 13.1 17.7 12 13.5 L 11.5 12 Q 19.7 10.2 24.5 5 Z " /><path fill="rgb(121,85,72)" stroke="rgb(121,85,72)" stroke-width="1" opacity="1" d="M 15.5 30 L 22.5 40 L 24 40 L 24 44 L 26 44 L 26 41.5 Q 32.1 37.6 34.5 30 Q 36.3 33.1 38 31.5 L 29.5 43 Q 28.1 45.6 23.5 45 L 17 39.5 L 12 31.5 Q 13.8 33.1 15.5 30 Z " /><path fill="rgb(216,157,14)" stroke="rgb(216,157,14)" stroke-width="1" opacity="1" d="M 24.5 10 L 38 16.5 L 37 19 L 34.5 19 L 24.5 13 Q 20.3 18 13 19 L 12 16.5 L 24.5 10 Z " /><path fill="rgb(216,157,14)" stroke="rgb(216,157,14)" stroke-width="1" opacity="1" d="M 10.5 13 L 10.5 16 Q 7.5 14.5 10.5 13 Z " /><path fill="rgb(216,157,14)" stroke="rgb(216,157,14)" stroke-width="1" opacity="1" d="M 39.5 13 Q 42.5 14.5 39.5 16 Q 36.5 14.5 39.5 13 Z " /><path fill="rgb(216,157,14)" stroke="rgb(216,157,14)" stroke-width="1" opacity="1" d="M 13.5 20 L 14 22.5 L 13 22.5 L 13.5 20 Z " /><path fill="rgb(216,157,14)" stroke="rgb(216,157,14)" stroke-width="1" opacity="1" d="M 36.5 20 L 37 22.5 L 36 22.5 L 36.5 20 Z " /><path fill="rgb(216,157,14)" stroke="rgb(216,157,14)" stroke-width="1" opacity="1" d="M 31.5 34 L 30.5 36 L 31.5 34 Z " /><path fill="rgb(216,157,14)" stroke="rgb(216,157,14)" stroke-width="1" opacity="1" d="M 19.5 35 L 26 40.5 L 24.5 41 L 19.5 35 Z " /><path fill="rgb(254,193,8)" stroke="rgb(254,193,8)" stroke-width="1" opacity="1" d="M 24.5 13 L 28 15.5 L 25.5 14 L 23.5 15 L 24.5 13 Z " /><path fill="rgb(254,193,8)" stroke="rgb(254,193,8)" stroke-width="1" opacity="1" d="M 21.5 15 L 20.5 17 L 21.5 15 Z " /><path fill="rgb(254,193,8)" stroke="rgb(254,193,8)" stroke-width="1" opacity="1" d="M 29.5 36 L 26.5 40 L 29.5 36 Z " /><path fill="rgb(255,193,7)" stroke="rgb(255,193,7)" stroke-width="1" opacity="1" d="M 24.5 14 L 36 19 Q 35.3 33.5 25.5 40 L 19 34.5 L 14 23.5 L 14 19 L 16.5 19 L 24.5 14 Z " /></svg>