<svg width="50" height="50" version="1.1" xmlns="http://www.w3.org/2000/svg" desc="Created with imagetracer.js version 1.2.6" ><path fill="rgb(0,0,0)" stroke="rgb(0,0,0)" stroke-width="1" opacity="0" d="M 0 0 L 50 0 L 50 50 L 0 50 L 0 0 Z M 25 5 L 22 6 L 21 9 Q 22 11 19 10 L 13 18 L 13 25 L 17 34 Q 18 37 15 36 L 12 41 Q 11 45 13 45 L 39 45 Q 40 39 36 38 Q 37 35 34 36 Q 33 28 27 23 L 27 21 L 32 22 L 37 21 L 37 19 L 30 10 L 27 9 Q 29 4 25 5 Z " /><path fill="rgb(67,89,99)" stroke="rgb(67,89,99)" stroke-width="1" opacity="0.7843137254901961" d="M 23.5 6 L 22.5 8 L 23.5 6 Z " /><path fill="rgb(67,89,99)" stroke="rgb(67,89,99)" stroke-width="1" opacity="0.7843137254901961" d="M 21.5 9 L 20.5 11 L 21.5 9 Z " /><path fill="rgb(67,89,99)" stroke="rgb(67,89,99)" stroke-width="1" opacity="0.7843137254901961" d="M 28.5 10 L 29.5 12 L 28.5 10 Z " /><path fill="rgb(67,89,99)" stroke="rgb(67,89,99)" stroke-width="1" opacity="0.7843137254901961" d="M 25.5 19 L 24.5 21 L 25.5 19 Z " /><path fill="rgb(67,89,99)" stroke="rgb(67,89,99)" stroke-width="1" opacity="0.7843137254901961" d="M 27.5 20 L 31 20.5 L 27.5 21 L 27.5 20 Z " /><path fill="rgb(67,89,99)" stroke="rgb(67,89,99)" stroke-width="1" opacity="0.7843137254901961" d="M 25.5 22 L 26.5 24 L 25.5 22 Z " /><path fill="rgb(67,89,99)" stroke="rgb(67,89,99)" stroke-width="1" opacity="0.7843137254901961" d="M 28.5 26 L 29.5 28 L 28.5 26 Z " /><path fill="rgb(67,89,99)" stroke="rgb(67,89,99)" stroke-width="1" opacity="0.7843137254901961" d="M 30.5 29 L 31.5 31 L 30.5 29 Z " /><path fill="rgb(67,89,99)" stroke="rgb(67,89,99)" stroke-width="1" opacity="0.7843137254901961" d="M 18.5 36 L 33 36.5 L 18.5 37 L 18.5 36 Z " /><path fill="rgb(67,89,99)" stroke="rgb(67,89,99)" stroke-width="1" opacity="0.7843137254901961" d="M 17.5 38 L 34 38.5 L 17.5 39 L 17.5 38 Z " /><path fill="rgb(67,89,99)" stroke="rgb(67,89,99)" stroke-width="1" opacity="0.7843137254901961" d="M 14.5 39 L 13.5 41 L 14.5 39 Z " /><path fill="rgb(67,89,99)" stroke="rgb(67,89,99)" stroke-width="1" opacity="0.7843137254901961" d="M 36.5 39 L 37.5 41 L 36.5 39 Z " /><path fill="rgb(67,89,99)" stroke="rgb(67,89,99)" stroke-width="1" opacity="0.7843137254901961" d="M 38.5 42 L 39 43.5 L 37.5 45 L 13.5 45 L 12.5 43 L 13.5 44 L 38 44 L 38.5 42 Z " /><path fill="rgb(255,202,40)" stroke="rgb(255,202,40)" stroke-width="1" opacity="1" d="M 15 36 Q 20.9 38.4 32.5 37 L 36 36 L 35.5 38 L 15 38 L 15 36 Z " /><path fill="rgb(104,110,90)" stroke="rgb(104,110,90)" stroke-width="1" opacity="0.396078431372549" d="M 26.5 5 L 28 9.5 L 26 10 L 26.5 5 Z " /><path fill="rgb(104,110,90)" stroke="rgb(104,110,90)" stroke-width="1" opacity="0.396078431372549" d="M 18.5 10 L 20 10.5 L 15 14.5 L 14.5 16 L 14 14.5 L 18.5 10 Z " /><path fill="rgb(104,110,90)" stroke="rgb(104,110,90)" stroke-width="1" opacity="0.396078431372549" d="M 30.5 12 L 37 18.5 L 37 21 L 34.5 22 L 36 19.5 L 30.5 12 Z " /><path fill="rgb(104,110,90)" stroke="rgb(104,110,90)" stroke-width="1" opacity="0.396078431372549" d="M 13.5 17 L 14 24.5 L 13 24.5 L 13.5 17 Z " /><path fill="rgb(104,110,90)" stroke="rgb(104,110,90)" stroke-width="1" opacity="0.396078431372549" d="M 25 20 L 27 20.5 L 26.5 23 L 25 20 Z " /><path fill="rgb(104,110,90)" stroke="rgb(104,110,90)" stroke-width="1" opacity="0.396078431372549" d="M 27.5 24 L 29.5 27 L 27.5 24 Z " /><path fill="rgb(104,110,90)" stroke="rgb(104,110,90)" stroke-width="1" opacity="0.396078431372549" d="M 30.5 28 L 31.5 30 L 30.5 28 Z " /><path fill="rgb(104,110,90)" stroke="rgb(104,110,90)" stroke-width="1" opacity="0.396078431372549" d="M 15.5 29 L 17 32.5 L 16 32.5 L 15.5 29 Z " /><path fill="rgb(104,110,90)" stroke="rgb(104,110,90)" stroke-width="1" opacity="0.396078431372549" d="M 14.5 38 L 17 38.5 L 13 40.5 L 12.5 43 L 12 40.5 L 14.5 38 Z " /><path fill="rgb(104,110,90)" stroke="rgb(104,110,90)" stroke-width="1" opacity="0.396078431372549" d="M 34.5 38 Q 38.5 37.5 39 40.5 L 38.5 42 L 36.5 39 Q 33.5 39.5 34.5 38 Z " /><path fill="rgb(68,89,99)" stroke="rgb(68,89,99)" stroke-width="1" opacity="0.996078431372549" d="M 17.5 12 L 16.5 14 L 17.5 12 Z " /><path fill="rgb(69,90,100)" stroke="rgb(69,90,100)" stroke-width="1" opacity="1" d="M 25.5 6 L 26 10 L 30 12.5 Q 29.3 14.8 31.5 14 L 33 17 Q 35.7 15.9 35 18.5 L 35.5 20 L 31.5 21 L 24 19 L 33 36 L 18.5 36 L 18 32.5 Q 12.8 28.2 14 17.5 L 19.5 11 L 22 9.5 L 23.5 7 L 25.5 6 Z " /><path fill="rgb(69,90,100)" stroke="rgb(69,90,100)" stroke-width="1" opacity="1" d="M 15.5 39 L 35.5 39 L 38 41.5 L 37.5 44 L 13 44 Q 12.3 40.2 15.5 39 Z " /></svg>