<svg width="50" height="50" version="1.1" xmlns="http://www.w3.org/2000/svg" desc="Created with imagetracer.js version 1.2.6" ><path fill="rgb(0,0,0)" stroke="rgb(0,0,0)" stroke-width="1" opacity="0" d="M 0 0 L 50 0 L 50 50 L 0 50 L 0 0 Z M 25 5 L 12 17 L 15 42 L 21 45 Q 30 47 35 43 L 36 42 L 39 17 L 28 6 L 25 5 Z " /><path fill="rgb(129,253,254)" stroke="rgb(129,253,254)" stroke-width="1" opacity="0.8274509803921568" d="M 23.5 6 L 24 8.5 L 19.5 20 L 13 17 L 20.5 8 L 23.5 6 Z " /><path fill="rgb(21,118,209)" stroke="rgb(21,118,209)" stroke-width="1" opacity="0.8431372549019608" d="M 25.5 6 L 38 16.5 L 31.5 20 L 25.5 6 Z " /><path fill="rgb(21,118,209)" stroke="rgb(21,118,209)" stroke-width="1" opacity="0.8431372549019608" d="M 30.5 24 L 31 29.5 L 30 29.5 L 30.5 24 Z " /><path fill="rgb(21,118,209)" stroke="rgb(21,118,209)" stroke-width="1" opacity="0.8431372549019608" d="M 29.5 36 L 30 41.5 L 29 41.5 L 29.5 36 Z " /><path fill="rgb(0,172,251)" stroke="rgb(0,172,251)" stroke-width="1" opacity="0.9450980392156862" d="M 24 7 Q 26.7 5.9 26 8.5 L 31 19.5 L 20 20 L 24 7 Z " /><path fill="rgb(0,172,251)" stroke="rgb(0,172,251)" stroke-width="1" opacity="0.9450980392156862" d="M 20.5 26 L 21 31.5 L 20 31.5 L 20.5 26 Z " /><path fill="rgb(0,172,251)" stroke="rgb(0,172,251)" stroke-width="1" opacity="0.9450980392156862" d="M 21.5 39 L 22 43.5 L 21 43.5 L 21.5 39 Z " /><path fill="rgb(0,144,233)" stroke="rgb(0,144,233)" stroke-width="1" opacity="0.9882352941176471" d="M 20 20 L 31 20 L 31 23.5 L 30 24.5 L 29 45 L 22 45 L 22 39.5 L 21 38.5 L 21 26.5 L 20 20 Z " /><path fill="rgb(7,212,253)" stroke="rgb(7,212,253)" stroke-width="1" opacity="0.47843137254901963" d="M 12.5 16 L 13 20.5 L 12 20.5 L 12.5 16 Z " /><path fill="rgb(7,212,253)" stroke="rgb(7,212,253)" stroke-width="1" opacity="0.47843137254901963" d="M 13.5 24 L 14 29.5 L 13 29.5 L 13.5 24 Z " /><path fill="rgb(7,212,253)" stroke="rgb(7,212,253)" stroke-width="1" opacity="0.47843137254901963" d="M 14.5 32 L 15 37.5 L 14 37.5 L 14.5 32 Z " /><path fill="rgb(7,212,253)" stroke="rgb(7,212,253)" stroke-width="1" opacity="0.47843137254901963" d="M 15.5 41 L 22 44.5 L 20.5 45 Q 15.9 43.8 15.5 41 Z " /><path fill="rgb(13,76,166)" stroke="rgb(13,76,166)" stroke-width="1" opacity="0.396078431372549" d="M 28.5 7 L 32.5 12 L 28.5 7 Z " /><path fill="rgb(13,76,166)" stroke="rgb(13,76,166)" stroke-width="1" opacity="0.396078431372549" d="M 35.5 13 Q 40 14 39 20.5 L 38 20.5 L 38 16.5 L 35.5 13 Z " /><path fill="rgb(13,76,166)" stroke="rgb(13,76,166)" stroke-width="1" opacity="0.396078431372549" d="M 37.5 23 L 38 28.5 L 37 28.5 L 37.5 23 Z " /><path fill="rgb(13,76,166)" stroke="rgb(13,76,166)" stroke-width="1" opacity="0.396078431372549" d="M 36.5 31 L 37 35.5 L 36 35.5 L 36.5 31 Z " /><path fill="rgb(13,76,166)" stroke="rgb(13,76,166)" stroke-width="1" opacity="0.396078431372549" d="M 35.5 38 L 36 41.5 L 29.5 45 L 29.5 44 L 35 42 L 35.5 38 Z " /><path fill="rgb(0,228,254)" stroke="rgb(0,228,254)" stroke-width="1" opacity="0.984313725490196" d="M 13 17 L 20 20.5 L 21 43.5 L 19.5 43 L 15 40.5 L 13 17 Z " /><path fill="rgb(12,71,161)" stroke="rgb(12,71,161)" stroke-width="1" opacity="0.984313725490196" d="M 37.5 17 L 38 22.5 L 37 23.5 L 37 30.5 L 35 42 L 29 44 L 30 41.5 L 31 20.5 L 32.5 19 L 37.5 17 Z " /></svg>