<svg width="50" height="50" version="1.1" xmlns="http://www.w3.org/2000/svg" desc="Created with imagetracer.js version 1.2.6" ><path fill="rgb(249,86,35)" stroke="rgb(249,86,35)" stroke-width="1" opacity="1" d="M 19.5 17 L 18.5 19 L 19.5 17 Z " /><path fill="rgb(249,86,35)" stroke="rgb(249,86,35)" stroke-width="1" opacity="1" d="M 30.5 17 L 31.5 19 L 30.5 17 Z " /><path fill="rgb(249,86,35)" stroke="rgb(249,86,35)" stroke-width="1" opacity="1" d="M 11.5 23 L 14 24.5 L 12.5 25 L 11.5 23 Z " /><path fill="rgb(249,86,35)" stroke="rgb(249,86,35)" stroke-width="1" opacity="1" d="M 38.5 23 L 37.5 25 L 36 24.5 L 38.5 23 Z " /><path fill="rgb(249,86,35)" stroke="rgb(249,86,35)" stroke-width="1" opacity="1" d="M 13.5 28 L 15 28.5 L 12.5 30 L 13.5 28 Z " /><path fill="rgb(249,86,35)" stroke="rgb(249,86,35)" stroke-width="1" opacity="1" d="M 35.5 28 L 38 29.5 L 36.5 29 L 35.5 28 Z " /><path fill="rgb(255,60,0)" stroke="rgb(255,60,0)" stroke-width="1" opacity="0.996078431372549" d="M 5.5 27 L 11.5 34 L 5.5 27 Z " /><path fill="rgb(255,60,0)" stroke="rgb(255,60,0)" stroke-width="1" opacity="0.996078431372549" d="M 44.5 27 L 42.5 30 L 44.5 27 Z " /><path fill="rgb(255,60,0)" stroke="rgb(255,60,0)" stroke-width="1" opacity="0.996078431372549" d="M 40.5 31 L 38.5 34 L 40.5 31 Z " /><path fill="rgb(255,60,0)" stroke="rgb(255,60,0)" stroke-width="1" opacity="0.996078431372549" d="M 34.5 36 L 33.5 38 L 34.5 36 Z " /><path fill="rgb(255,60,0)" stroke="rgb(255,60,0)" stroke-width="1" opacity="0.996078431372549" d="M 19.5 39 L 25.5 44 L 31 39.5 L 24.5 45 L 19.5 39 Z " /><path fill="rgb(255,61,0)" stroke="rgb(255,61,0)" stroke-width="1" opacity="1" d="M 11.5 7 L 17.5 7 L 25.5 12 L 32.5 7 L 38.5 7 L 45 11.5 Q 48.3 15.2 47 23.5 L 42 31 L 24.5 44 L 4 25.5 Q 1.7 22.3 3 15.5 L 7.5 9 L 11.5 7 Z M 25 14 L 22 15 Q 17 16 18 21 Q 15 22 16 19 L 12 19 L 11 22 L 13 25 L 15 24 L 18 25 L 19 28 L 17 28 L 15 28 L 12 30 L 15 34 Q 19 35 17 31 L 20 30 L 23 32 Q 28 33 30 30 L 32 31 Q 34 30 33 34 L 36 34 L 38 31 L 37 28 L 35 29 L 31 28 L 32 25 L 35 24 L 37 25 L 39 24 L 38 19 Q 33 17 34 21 Q 31 22 32 19 Q 30 14 25 14 Z " /><path fill="rgb(175,132,120)" stroke="rgb(175,132,120)" stroke-width="1" opacity="1" d="M 12.5 20 L 13 21.5 L 11 22.5 L 12.5 20 Z " /><path fill="rgb(175,132,120)" stroke="rgb(175,132,120)" stroke-width="1" opacity="1" d="M 20 20 L 24 21.5 Q 25.3 25.3 21.5 24 L 20 20 Z " /><path fill="rgb(175,132,120)" stroke="rgb(175,132,120)" stroke-width="1" opacity="1" d="M 27.5 20 Q 31.3 18.8 30 22.5 L 26 24 L 27.5 20 Z " /><path fill="rgb(175,132,120)" stroke="rgb(175,132,120)" stroke-width="1" opacity="1" d="M 37.5 20 L 39 22.5 L 37 21.5 L 37.5 20 Z " /><path fill="rgb(175,132,120)" stroke="rgb(175,132,120)" stroke-width="1" opacity="1" d="M 24 25 Q 27 24 26 27 Q 23 28 24 25 Z " /><path fill="rgb(175,132,120)" stroke="rgb(175,132,120)" stroke-width="1" opacity="1" d="M 20.5 29 L 22.5 32 L 20.5 29 Z " /><path fill="rgb(175,132,120)" stroke="rgb(175,132,120)" stroke-width="1" opacity="1" d="M 29.5 29 L 27.5 32 L 29.5 29 Z " /><path fill="rgb(175,132,120)" stroke="rgb(175,132,120)" stroke-width="1" opacity="1" d="M 12.5 30 L 15 33.5 L 13 32.5 L 12.5 30 Z " /><path fill="rgb(175,132,120)" stroke="rgb(175,132,120)" stroke-width="1" opacity="1" d="M 17.5 30 L 17 31.5 L 16.5 33 L 16 31.5 L 17.5 30 Z " /><path fill="rgb(175,132,120)" stroke="rgb(175,132,120)" stroke-width="1" opacity="1" d="M 32.5 30 L 34 32.5 L 33 32.5 L 32.5 30 Z " /><path fill="rgb(175,132,120)" stroke="rgb(175,132,120)" stroke-width="1" opacity="1" d="M 37.5 30 L 36.5 32 L 37.5 30 Z " /><path fill="rgb(237,235,235)" stroke="rgb(237,235,235)" stroke-width="1" opacity="1" d="M 22.5 15 Q 29.8 13.8 31 18.5 L 32 22 L 35 22 Q 33.7 17.9 37 19 L 38 24 L 34.5 23 L 32 24 L 30 27.5 Q 32.3 29.9 37 29 L 34.5 34 L 32.5 30 L 29.5 29 Q 28.7 32.8 23.5 32 L 20.5 29 L 19.5 30 L 16 31.5 L 15.5 34 L 13 29 Q 17.7 29.9 20 27.5 L 18 24 L 14.5 23 L 12 24 L 13 19 Q 16.3 17.9 15 22 L 18 22 Q 18.5 17.3 22.5 15 Z M 20 20 L 22 24 Q 25 25 24 22 L 20 20 Z M 28 20 L 26 24 L 30 23 Q 31 19 28 20 Z M 24 25 Q 23 28 26 27 Q 27 24 24 25 Z " /><path fill="rgb(0,0,0)" stroke="rgb(0,0,0)" stroke-width="1" opacity="0" d="M 0 0 L 50 0 L 50 50 L 0 50 L 0 0 Z M 11 6 L 5 9 L 2 15 Q 1 24 4 28 L 19 40 L 24 47 Q 27 48 26 46 L 38 36 Q 45 32 48 24 L 48 15 L 45 9 L 40 6 Q 29 4 26 10 L 19 6 L 11 6 Z " /><path fill="rgb(255,60,0)" stroke="rgb(255,60,0)" stroke-width="1" opacity="0.7098039215686275" d="M 12.5 6 L 17 6.5 L 12.5 7 L 12.5 6 Z " /><path fill="rgb(255,60,0)" stroke="rgb(255,60,0)" stroke-width="1" opacity="0.7098039215686275" d="M 33.5 6 L 38 6.5 L 33.5 7 L 33.5 6 Z " /><path fill="rgb(255,60,0)" stroke="rgb(255,60,0)" stroke-width="1" opacity="0.7098039215686275" d="M 21.5 8 L 25.5 11 L 29 8.5 L 24.5 12 L 21.5 8 Z " /><path fill="rgb(255,60,0)" stroke="rgb(255,60,0)" stroke-width="1" opacity="0.7098039215686275" d="M 6.5 9 L 5.5 11 L 6.5 9 Z " /><path fill="rgb(255,60,0)" stroke="rgb(255,60,0)" stroke-width="1" opacity="0.7098039215686275" d="M 43.5 9 L 44.5 11 L 43.5 9 Z " /><path fill="rgb(255,60,0)" stroke="rgb(255,60,0)" stroke-width="1" opacity="0.7098039215686275" d="M 47.5 16 L 48 18.5 L 47 18.5 L 47.5 16 Z " /><path fill="rgb(255,60,0)" stroke="rgb(255,60,0)" stroke-width="1" opacity="0.7098039215686275" d="M 12.5 34 L 13.5 36 L 12.5 34 Z " /><path fill="rgb(255,60,0)" stroke="rgb(255,60,0)" stroke-width="1" opacity="0.7098039215686275" d="M 37.5 34 L 36.5 36 L 37.5 34 Z " /><path fill="rgb(255,60,0)" stroke="rgb(255,60,0)" stroke-width="1" opacity="0.7098039215686275" d="M 16.5 37 L 18.5 40 L 16.5 37 Z " /><path fill="rgb(255,60,0)" stroke="rgb(255,60,0)" stroke-width="1" opacity="0.7098039215686275" d="M 32.5 38 L 31.5 40 L 32.5 38 Z " /><path fill="rgb(255,59,0)" stroke="rgb(255,59,0)" stroke-width="1" opacity="0.21568627450980393" d="M 8.5 7 L 7.5 9 L 8.5 7 Z " /><path fill="rgb(255,59,0)" stroke="rgb(255,59,0)" stroke-width="1" opacity="0.21568627450980393" d="M 41.5 7 L 42.5 9 L 41.5 7 Z " /><path fill="rgb(255,59,0)" stroke="rgb(255,59,0)" stroke-width="1" opacity="0.21568627450980393" d="M 22.5 8 L 25.5 10 L 28 8.5 L 24.5 11 L 22.5 8 Z " /><path fill="rgb(255,59,0)" stroke="rgb(255,59,0)" stroke-width="1" opacity="0.21568627450980393" d="M 4.5 11 L 3.5 13 L 4.5 11 Z " /><path fill="rgb(255,59,0)" stroke="rgb(255,59,0)" stroke-width="1" opacity="0.21568627450980393" d="M 45.5 11 L 46.5 13 L 45.5 11 Z " /><path fill="rgb(255,59,0)" stroke="rgb(255,59,0)" stroke-width="1" opacity="0.21568627450980393" d="M 4.5 27 L 12.5 36 L 4.5 27 Z " /><path fill="rgb(255,59,0)" stroke="rgb(255,59,0)" stroke-width="1" opacity="0.21568627450980393" d="M 45.5 27 L 43.5 30 L 45.5 27 Z " /><path fill="rgb(255,59,0)" stroke="rgb(255,59,0)" stroke-width="1" opacity="0.21568627450980393" d="M 41.5 31 L 37.5 36 L 41.5 31 Z " /><path fill="rgb(255,59,0)" stroke="rgb(255,59,0)" stroke-width="1" opacity="0.21568627450980393" d="M 14.5 36 L 17.5 40 L 14.5 36 Z " /><path fill="rgb(255,59,0)" stroke="rgb(255,59,0)" stroke-width="1" opacity="0.21568627450980393" d="M 35.5 36 L 32.5 40 L 35.5 36 Z " /><path fill="rgb(255,59,0)" stroke="rgb(255,59,0)" stroke-width="1" opacity="0.21568627450980393" d="M 19.5 40 L 23.5 45 L 19.5 40 Z " /><path fill="rgb(255,59,0)" stroke="rgb(255,59,0)" stroke-width="1" opacity="0.21568627450980393" d="M 30.5 40 L 26.5 45 L 30.5 40 Z " /></svg>