<svg width="50" height="50" version="1.1" xmlns="http://www.w3.org/2000/svg" desc="Created with imagetracer.js version 1.2.6" ><path fill="rgb(228,56,52)" stroke="rgb(228,56,52)" stroke-width="1" opacity="0.9607843137254902" d="M 10.5 5 L 9.5 7 L 10.5 5 Z " /><path fill="rgb(228,56,52)" stroke="rgb(228,56,52)" stroke-width="1" opacity="0.9607843137254902" d="M 18.5 7 L 19.5 9 L 18.5 7 Z " /><path fill="rgb(228,56,52)" stroke="rgb(228,56,52)" stroke-width="1" opacity="0.9607843137254902" d="M 9.5 10 L 8.5 12 L 9.5 10 Z " /><path fill="rgb(228,56,52)" stroke="rgb(228,56,52)" stroke-width="1" opacity="0.9607843137254902" d="M 12.5 12 L 11.5 14 L 12.5 12 Z " /><path fill="rgb(228,56,52)" stroke="rgb(228,56,52)" stroke-width="1" opacity="0.9607843137254902" d="M 10.5 15 L 11.5 17 Q 8.7 17.7 10.5 15 Z " /><path fill="rgb(228,56,52)" stroke="rgb(228,56,52)" stroke-width="1" opacity="0.9607843137254902" d="M 18.5 15 L 23.5 21 L 22 20.5 L 21.5 22 L 19 21.5 L 20 19.5 L 18.5 15 Z " /><path fill="rgb(228,56,52)" stroke="rgb(228,56,52)" stroke-width="1" opacity="0.9607843137254902" d="M 16.5 19 L 17 21 L 14 20.5 L 16.5 19 Z " /><path fill="rgb(228,56,52)" stroke="rgb(228,56,52)" stroke-width="1" opacity="0.9607843137254902" d="M 32.5 20 L 32 21.5 L 31.5 23 L 31 21.5 L 32.5 20 Z " /><path fill="rgb(228,56,52)" stroke="rgb(228,56,52)" stroke-width="1" opacity="0.9607843137254902" d="M 31.5 24 L 29.5 27 L 31.5 24 Z " /><path fill="rgb(228,56,52)" stroke="rgb(228,56,52)" stroke-width="1" opacity="0.9607843137254902" d="M 8.5 27 L 6.5 30 L 5 29.5 L 8.5 27 Z " /><path fill="rgb(228,56,52)" stroke="rgb(228,56,52)" stroke-width="1" opacity="0.9607843137254902" d="M 28.5 31 L 29.5 33 L 28.5 31 Z " /><path fill="rgb(228,56,52)" stroke="rgb(228,56,52)" stroke-width="1" opacity="0.9607843137254902" d="M 23.5 35 L 22.5 37 L 23.5 35 Z " /><path fill="rgb(229,57,53)" stroke="rgb(229,57,53)" stroke-width="1" opacity="0.996078431372549" d="M 22.5 5 L 23.5 7 L 22.5 5 Z " /><path fill="rgb(0,0,0)" stroke="rgb(0,0,0)" stroke-width="1" opacity="0" d="M 0 0 L 50 0 L 50 50 L 0 50 L 0 0 Z M 13 3 L 11 4 L 7 9 Q 6 14 8 16 L 7 16 L 8 19 L 6 21 Q 3 20 4 23 L 6 24 L 4 24 L 2 28 L 2 31 L 2 33 L 3 42 Q 5 46 7 43 L 12 46 L 20 46 L 25 43 L 28 38 Q 30 39 29 45 L 33 46 L 32 45 L 36 47 Q 42 48 44 46 Q 43 42 47 41 L 46 34 L 44 33 L 40 34 L 42 37 L 39 38 Q 40 33 38 32 Q 35 31 36 35 L 30 32 L 33 27 L 37 23 Q 43 25 45 22 Q 49 23 48 20 L 39 17 L 33 19 L 29 23 Q 30 27 27 28 L 28 30 L 26 29 L 28 25 Q 29 22 25 23 Q 26 20 23 19 L 26 16 L 27 12 L 26 8 Q 23 1 13 3 Z " /><path fill="rgb(0,0,0)" stroke="rgb(0,0,0)" stroke-width="1" opacity="0" d="M 15 8 L 19 9.5 L 18.5 13 L 17.5 11 L 16.5 13 Q 12.3 11.3 15 9.5 L 15 8 Z " /><path fill="rgb(0,0,0)" stroke="rgb(0,0,0)" stroke-width="1" opacity="0" d="M 11.5 24 L 12 26.5 L 11 26.5 L 11.5 24 Z " /><path fill="rgb(0,0,0)" stroke="rgb(0,0,0)" stroke-width="1" opacity="0" d="M 19.5 24 Q 21.8 23.3 21 25.5 L 19.5 24 Z " /><path fill="rgb(0,0,0)" stroke="rgb(0,0,0)" stroke-width="1" opacity="0" d="M 6 26 L 8 26.5 L 6 27.5 L 6 26 Z " /><path fill="rgb(0,0,0)" stroke="rgb(0,0,0)" stroke-width="1" opacity="0" d="M 15.5 26 L 16 28.5 L 16 30.5 Q 15.3 32.8 17.5 32 L 20 31 L 19 28.5 L 21 29.5 L 23 34.5 L 18.5 39 L 15.5 39 L 13 38 L 12 31.5 L 15.5 26 Z " /><path fill="rgb(229,57,53)" stroke="rgb(229,57,53)" stroke-width="1" opacity="1" d="M 13.5 4 Q 23.3 2.3 25 8.5 L 26 11.5 L 23.5 17 L 20 13.5 Q 21.3 8.3 18.5 7 Q 13.1 5.1 14 8.5 L 11.5 13 L 9.5 10 L 8 10.5 Q 7.5 5.5 11.5 5 L 13.5 4 Z " /><path fill="rgb(229,57,53)" stroke="rgb(229,57,53)" stroke-width="1" opacity="1" d="M 15.5 15 L 20 19.5 L 19 20.5 L 20 22.5 L 14.5 25 L 15 23.5 L 17 18.5 Q 14 17.5 15.5 15 Z " /><path fill="rgb(229,57,53)" stroke="rgb(229,57,53)" stroke-width="1" opacity="1" d="M 9.5 17 L 11.5 17 L 16 19.5 L 10 22.5 Q 10.7 25.1 8 24 Q 9.1 21.3 6.5 22 L 6.5 21 L 9 19.5 L 9.5 17 Z " /><path fill="rgb(229,57,53)" stroke="rgb(229,57,53)" stroke-width="1" opacity="1" d="M 40.5 19 L 45 20.5 Q 43.3 22.8 38.5 22 L 40.5 19 Z " /><path fill="rgb(229,57,53)" stroke="rgb(229,57,53)" stroke-width="1" opacity="1" d="M 22 21 Q 25 19.8 24 23.5 L 26 26.5 L 24.5 26 L 22 24.5 L 22 21 Z " /><path fill="rgb(229,57,53)" stroke="rgb(229,57,53)" stroke-width="1" opacity="1" d="M 33.5 23 L 32 25.5 L 31 29 L 28 28.5 L 33.5 23 Z " /><path fill="rgb(229,57,53)" stroke="rgb(229,57,53)" stroke-width="1" opacity="1" d="M 5.5 25 L 5 26.5 Q 3.5 30.9 6.5 30 L 10 27.5 L 10.5 29 L 12 28.5 L 11 36.5 Q 12 41 18.5 40 L 24.5 36 L 26 38.5 L 22.5 43 Q 19.2 46.2 11.5 45 L 6.5 41 L 4 41 L 3 33.5 L 4 29.5 L 4 27.5 L 5.5 25 Z " /><path fill="rgb(229,57,53)" stroke="rgb(229,57,53)" stroke-width="1" opacity="1" d="M 21.5 27 Q 23.8 26.3 23 28.5 L 33.5 36 L 35.5 36 L 38 34.5 L 37 39 Q 41.6 40.3 43 37.5 Q 41.9 34.2 44.5 35 Q 47 36 46 40.5 Q 44 43.8 39 43 Q 37.8 46 41.5 45 L 41.5 46 Q 36.1 46.6 34 45 L 33 41 Q 30 39.8 31 43.5 L 30 43.5 Q 31 37 27.5 35 L 23 31.5 L 21.5 27 Z " /><path fill="rgb(229,57,53)" stroke="rgb(229,57,53)" stroke-width="1" opacity="1" d="M 17.5 28 L 18.5 30 L 17.5 28 Z " /><path fill="rgb(228,56,52)" stroke="rgb(228,56,52)" stroke-width="1" opacity="0.7411764705882353" d="M 17.5 3 L 20 3.5 L 17.5 4 L 17.5 3 Z " /><path fill="rgb(228,56,52)" stroke="rgb(228,56,52)" stroke-width="1" opacity="0.7411764705882353" d="M 7.5 10 L 9 12.5 L 7 13 L 7.5 10 Z " /><path fill="rgb(228,56,52)" stroke="rgb(228,56,52)" stroke-width="1" opacity="0.7411764705882353" d="M 15.5 14 L 18 15 L 19 17.5 L 15.5 14 Z " /><path fill="rgb(228,56,52)" stroke="rgb(228,56,52)" stroke-width="1" opacity="0.7411764705882353" d="M 20.5 14 L 22.5 17 L 20.5 14 Z " /><path fill="rgb(228,56,52)" stroke="rgb(228,56,52)" stroke-width="1" opacity="0.7411764705882353" d="M 14.5 16 L 16.5 19 Q 14.3 19.8 15 17.5 L 14.5 16 Z " /><path fill="rgb(228,56,52)" stroke="rgb(228,56,52)" stroke-width="1" opacity="0.7411764705882353" d="M 8.5 18 L 9 19.5 L 7 20.5 L 8.5 18 Z " /><path fill="rgb(228,56,52)" stroke="rgb(228,56,52)" stroke-width="1" opacity="0.7411764705882353" d="M 37.5 18 Q 40.8 19.8 37 21.5 L 36.5 23 L 34.5 22 L 34.5 24 L 32 23.5 L 33.5 20 L 37 21 L 37.5 18 Z " /><path fill="rgb(228,56,52)" stroke="rgb(228,56,52)" stroke-width="1" opacity="0.7411764705882353" d="M 46.5 20 L 47 22 L 44 21.5 L 46.5 20 Z " /><path fill="rgb(228,56,52)" stroke="rgb(228,56,52)" stroke-width="1" opacity="0.7411764705882353" d="M 14 21 L 16 21.5 L 14.5 24 L 14 21 Z " /><path fill="rgb(228,56,52)" stroke="rgb(228,56,52)" stroke-width="1" opacity="0.7411764705882353" d="M 20.5 22 L 19.5 24 L 20.5 22 Z " /><path fill="rgb(228,56,52)" stroke="rgb(228,56,52)" stroke-width="1" opacity="0.7411764705882353" d="M 24.5 22 L 27 25.5 L 24 23.5 L 24.5 22 Z " /><path fill="rgb(228,56,52)" stroke="rgb(228,56,52)" stroke-width="1" opacity="0.7411764705882353" d="M 5.5 24 L 4.5 26 L 5.5 24 Z " /><path fill="rgb(228,56,52)" stroke="rgb(228,56,52)" stroke-width="1" opacity="0.7411764705882353" d="M 16.5 24 L 18 24.5 L 16 25.5 L 18.5 27 L 21.5 25 L 21 26.5 L 22 28.5 L 19 27.5 L 18.5 29 L 18 27 L 15 25.5 L 16.5 24 Z " /><path fill="rgb(228,56,52)" stroke="rgb(228,56,52)" stroke-width="1" opacity="0.7411764705882353" d="M 9.5 26 Q 11.8 25.3 11 27.5 L 9.5 26 Z " /><path fill="rgb(228,56,52)" stroke="rgb(228,56,52)" stroke-width="1" opacity="0.7411764705882353" d="M 24.5 26 L 25.5 28 L 24.5 26 Z " /><path fill="rgb(228,56,52)" stroke="rgb(228,56,52)" stroke-width="1" opacity="0.7411764705882353" d="M 23.5 28 L 24.5 30 L 23.5 28 Z " /><path fill="rgb(228,56,52)" stroke="rgb(228,56,52)" stroke-width="1" opacity="0.7411764705882353" d="M 2.5 29 L 4 31.5 L 3 31.5 L 2.5 29 Z " /><path fill="rgb(228,56,52)" stroke="rgb(228,56,52)" stroke-width="1" opacity="0.7411764705882353" d="M 11.5 31 L 12 35.5 L 11 35.5 L 11.5 31 Z " /><path fill="rgb(228,56,52)" stroke="rgb(228,56,52)" stroke-width="1" opacity="0.7411764705882353" d="M 24.5 33 L 25.5 35 L 24.5 33 Z " /><path fill="rgb(228,56,52)" stroke="rgb(228,56,52)" stroke-width="1" opacity="0.7411764705882353" d="M 31.5 33 L 32.5 35 L 31.5 33 Z " /><path fill="rgb(228,56,52)" stroke="rgb(228,56,52)" stroke-width="1" opacity="0.7411764705882353" d="M 37.5 33 L 35.5 36 L 34 35.5 L 37.5 33 Z " /><path fill="rgb(228,56,52)" stroke="rgb(228,56,52)" stroke-width="1" opacity="0.7411764705882353" d="M 44.5 34 L 45.5 36 L 44.5 34 Z " /><path fill="rgb(228,56,52)" stroke="rgb(228,56,52)" stroke-width="1" opacity="0.7411764705882353" d="M 25.5 36 L 27 38.5 L 26 38.5 L 25.5 36 Z " /><path fill="rgb(228,56,52)" stroke="rgb(228,56,52)" stroke-width="1" opacity="0.7411764705882353" d="M 12.5 37 L 13.5 39 L 12.5 37 Z " /><path fill="rgb(228,56,52)" stroke="rgb(228,56,52)" stroke-width="1" opacity="0.7411764705882353" d="M 46.5 37 L 47 39.5 L 46 39.5 L 46.5 37 Z " /><path fill="rgb(228,56,52)" stroke="rgb(228,56,52)" stroke-width="1" opacity="0.7411764705882353" d="M 29.5 39 L 30 42.5 L 29 42.5 L 29.5 39 Z " /><path fill="rgb(228,56,52)" stroke="rgb(228,56,52)" stroke-width="1" opacity="0.7411764705882353" d="M 4.5 41 L 5.5 43 L 4.5 41 Z " /><path fill="rgb(228,56,52)" stroke="rgb(228,56,52)" stroke-width="1" opacity="0.7411764705882353" d="M 24.5 41 L 23.5 43 L 24.5 41 Z " /><path fill="rgb(228,56,52)" stroke="rgb(228,56,52)" stroke-width="1" opacity="0.7411764705882353" d="M 32.5 41 L 31.5 43 L 32.5 41 Z " /><path fill="rgb(228,56,52)" stroke="rgb(228,56,52)" stroke-width="1" opacity="0.7411764705882353" d="M 7.5 42 L 8.5 44 L 7.5 42 Z " /><path fill="rgb(228,56,52)" stroke="rgb(228,56,52)" stroke-width="1" opacity="0.7411764705882353" d="M 40 43 L 42 43.5 L 40 44.5 L 40 43 Z " /><path fill="rgb(228,56,52)" stroke="rgb(228,56,52)" stroke-width="1" opacity="0.7411764705882353" d="M 12.5 45 L 18 45.5 L 12.5 46 L 12.5 45 Z " /><path fill="rgb(230,53,49)" stroke="rgb(230,53,49)" stroke-width="1" opacity="0.2235294117647059" d="M 10.5 4 L 8.5 7 L 10.5 4 Z " /><path fill="rgb(230,53,49)" stroke="rgb(230,53,49)" stroke-width="1" opacity="0.2235294117647059" d="M 22.5 4 L 25.5 8 L 22.5 4 Z " /><path fill="rgb(230,53,49)" stroke="rgb(230,53,49)" stroke-width="1" opacity="0.2235294117647059" d="M 19.5 10 Q 19 15.5 22.5 17 L 25 15.5 L 25.5 14 L 26 15.5 Q 20.5 18 25 20.5 L 24.5 22 L 21.5 18 Q 19.8 20.8 18 16.5 L 18 14.5 L 17.5 13 L 16.5 15 L 14.5 12 L 13 12.5 Q 12.3 10.3 14.5 11 L 17 12.5 L 17.5 11 L 18.5 13 L 19.5 10 Z " /><path fill="rgb(230,53,49)" stroke="rgb(230,53,49)" stroke-width="1" opacity="0.2235294117647059" d="M 7 13 Q 10.8 12 12 14.5 L 11.5 16 L 10 15.5 Q 10.8 17.8 8.5 17 Q 7.2 19.2 6 16.5 L 8 15.5 L 7 13 Z " /><path fill="rgb(230,53,49)" stroke="rgb(230,53,49)" stroke-width="1" opacity="0.2235294117647059" d="M 13.5 16 L 14.5 18 L 13.5 16 Z " /><path fill="rgb(230,53,49)" stroke="rgb(230,53,49)" stroke-width="1" opacity="0.2235294117647059" d="M 37.5 17 L 44 18.5 L 38.5 19 L 36.5 19 Q 31.8 19.3 30 22.5 L 30.5 24 L 33 22.5 L 28 28.5 L 31 30 L 32.5 27 L 32 28.5 L 30 31.5 L 30.5 33 L 27.5 29 L 25.5 30 L 21 26.5 L 23.5 26 L 27 28.5 L 26 26.5 L 29 25.5 Q 28.3 19.8 32.5 19 L 37.5 17 Z " /><path fill="rgb(230,53,49)" stroke="rgb(230,53,49)" stroke-width="1" opacity="0.2235294117647059" d="M 7.5 19 L 6.5 21 L 7.5 19 Z " /><path fill="rgb(230,53,49)" stroke="rgb(230,53,49)" stroke-width="1" opacity="0.2235294117647059" d="M 4.5 21 L 7 22 L 8.5 25 L 10.5 24 L 11 26 L 6.5 29 L 7.5 26 Q 4.5 26.7 6 23 L 4 23 L 4.5 21 Z " /><path fill="rgb(230,53,49)" stroke="rgb(230,53,49)" stroke-width="1" opacity="0.2235294117647059" d="M 13.5 21 L 14 23.5 L 13.5 25 Q 16.1 24.2 15 27.5 L 12.5 31 L 12 29.5 L 13.5 27 L 11.5 28 L 12 26.5 L 11 22.5 L 13.5 21 Z " /><path fill="rgb(230,53,49)" stroke="rgb(230,53,49)" stroke-width="1" opacity="0.2235294117647059" d="M 20.5 21 L 21.5 23 L 20.5 21 Z " /><path fill="rgb(230,53,49)" stroke="rgb(230,53,49)" stroke-width="1" opacity="0.2235294117647059" d="M 37.5 22 L 40 22.5 L 37.5 23 L 37.5 22 Z " /><path fill="rgb(230,53,49)" stroke="rgb(230,53,49)" stroke-width="1" opacity="0.2235294117647059" d="M 25.5 23 Q 28.8 21.9 28 24.5 L 26.5 24 L 25.5 23 Z " /><path fill="rgb(230,53,49)" stroke="rgb(230,53,49)" stroke-width="1" opacity="0.2235294117647059" d="M 35.5 23 L 33.5 26 L 35.5 23 Z " /><path fill="rgb(230,53,49)" stroke="rgb(230,53,49)" stroke-width="1" opacity="0.2235294117647059" d="M 18.5 24 L 19.5 26 Q 16.7 26.7 18.5 24 Z " /><path fill="rgb(230,53,49)" stroke="rgb(230,53,49)" stroke-width="1" opacity="0.2235294117647059" d="M 3.5 26 L 3 27.5 L 2.5 29 L 2 27.5 L 3.5 26 Z " /><path fill="rgb(230,53,49)" stroke="rgb(230,53,49)" stroke-width="1" opacity="0.2235294117647059" d="M 16.5 27 L 17 28.5 L 16 29.5 L 17.5 32 Q 15.3 32.8 16 30.5 L 16 28.5 L 16.5 27 Z " /><path fill="rgb(230,53,49)" stroke="rgb(230,53,49)" stroke-width="1" opacity="0.2235294117647059" d="M 19.5 27 L 22 30.5 L 21 30.5 L 20.5 29 L 19.5 31 L 19 29.5 L 19.5 27 Z " /><path fill="rgb(230,53,49)" stroke="rgb(230,53,49)" stroke-width="1" opacity="0.2235294117647059" d="M 2.5 32 L 3 38.5 L 2 38.5 L 2.5 32 Z " /><path fill="rgb(230,53,49)" stroke="rgb(230,53,49)" stroke-width="1" opacity="0.2235294117647059" d="M 22.5 32 L 25 35.5 L 23.5 35 L 19 38.5 L 23 33.5 L 22.5 32 Z " /><path fill="rgb(230,53,49)" stroke="rgb(230,53,49)" stroke-width="1" opacity="0.2235294117647059" d="M 36 32 L 39 33.5 L 38.5 35 L 37.5 33 L 36 33.5 L 36 32 Z " /><path fill="rgb(230,53,49)" stroke="rgb(230,53,49)" stroke-width="1" opacity="0.2235294117647059" d="M 32.5 33 L 33.5 35 L 32.5 33 Z " /><path fill="rgb(230,53,49)" stroke="rgb(230,53,49)" stroke-width="1" opacity="0.2235294117647059" d="M 40.5 33 L 44 33.5 L 42 34.5 L 42.5 36 L 40.5 33 Z " /><path fill="rgb(230,53,49)" stroke="rgb(230,53,49)" stroke-width="1" opacity="0.2235294117647059" d="M 26.5 35 L 29 38.5 L 26 36.5 L 26.5 35 Z " /><path fill="rgb(230,53,49)" stroke="rgb(230,53,49)" stroke-width="1" opacity="0.2235294117647059" d="M 38.5 36 L 40 38.5 L 38 39 L 38.5 36 Z " /><path fill="rgb(230,53,49)" stroke="rgb(230,53,49)" stroke-width="1" opacity="0.2235294117647059" d="M 26.5 39 L 25.5 41 L 26.5 39 Z " /><path fill="rgb(230,53,49)" stroke="rgb(230,53,49)" stroke-width="1" opacity="0.2235294117647059" d="M 3.5 40 L 5.5 43 Q 6.8 40.8 8 43.5 L 5.5 44 L 3 41.5 L 3.5 40 Z " /><path fill="rgb(230,53,49)" stroke="rgb(230,53,49)" stroke-width="1" opacity="0.2235294117647059" d="M 32.5 42 L 34 44.5 L 30.5 46 L 29 43.5 L 30 43.5 Q 29.2 46.1 32.5 45 L 32.5 44 L 31 43.5 L 32.5 42 Z " /><path fill="rgb(230,53,49)" stroke="rgb(230,53,49)" stroke-width="1" opacity="0.2235294117647059" d="M 44.5 42 L 44 43.5 L 43.5 46 L 41 44.5 L 44.5 42 Z " /><path fill="rgb(230,53,49)" stroke="rgb(230,53,49)" stroke-width="1" opacity="0.2235294117647059" d="M 22.5 43 L 21.5 45 L 22.5 43 Z " /></svg>