<svg width="50" height="50" version="1.1" xmlns="http://www.w3.org/2000/svg" desc="Created with imagetracer.js version 1.2.6" ><path fill="rgb(0,0,0)" stroke="rgb(0,0,0)" stroke-width="1" opacity="0" d="M 0 0 L 50 0 L 50 50 L 0 50 L 0 0 Z M 24 5 L 11 12 L 8 16 L 5 31 L 24 45 L 27 45 L 45 31 L 41 14 L 27 5 L 24 5 Z " /><path fill="rgb(227,192,233)" stroke="rgb(227,192,233)" stroke-width="1" opacity="0.7529411764705882" d="M 21.5 18 L 23 18.5 L 23 25 Q 19.3 26.4 21 20.5 Q 18.8 19.2 21.5 18 Z " /><path fill="rgb(227,192,233)" stroke="rgb(227,192,233)" stroke-width="1" opacity="0.7529411764705882" d="M 26.5 18 L 30 19.5 Q 31 24 28.5 25 L 25 23.5 Q 24 19 26.5 18 Z M 28 19 L 27 24 L 29 23 L 28 19 Z " /><path fill="rgb(137,37,168)" stroke="rgb(137,37,168)" stroke-width="1" opacity="0.8588235294117647" d="M 41.5 32 L 40.5 34 L 41.5 32 Z " /><path fill="rgb(137,37,168)" stroke="rgb(137,37,168)" stroke-width="1" opacity="0.8588235294117647" d="M 37.5 35 L 36.5 37 L 37.5 35 Z " /><path fill="rgb(205,146,215)" stroke="rgb(205,146,215)" stroke-width="1" opacity="0.9882352941176471" d="M 23.5 6 L 23 7.5 L 14 24 L 6.5 29 L 6 25.5 L 10.5 13 L 23.5 6 Z " /><path fill="rgb(205,146,215)" stroke="rgb(205,146,215)" stroke-width="1" opacity="0.9882352941176471" d="M 20.5 18 L 19.5 20 L 20.5 18 Z " /><path fill="rgb(205,146,215)" stroke="rgb(205,146,215)" stroke-width="1" opacity="0.9882352941176471" d="M 28.5 20 L 29 22.5 L 27 23.5 L 28.5 20 Z " /><path fill="rgb(170,71,187)" stroke="rgb(170,71,187)" stroke-width="1" opacity="0.996078431372549" d="M 25.5 6 L 36 22.5 L 36 25 L 24.5 33 L 14 25 Q 17.9 14.1 25.5 6 Z M 23 17 L 19 18 Q 18 21 21 20 L 21 25 L 23 25 L 23 17 Z M 28 17 L 25 18 L 25 25 L 30 25 L 31 23 L 30 19 L 28 17 Z " /><path fill="rgb(170,71,187)" stroke="rgb(170,71,187)" stroke-width="1" opacity="0.996078431372549" d="M 27.5 19 L 28 22.5 L 27 22.5 L 27.5 19 Z " /><path fill="rgb(182,94,195)" stroke="rgb(182,94,195)" stroke-width="1" opacity="0.5764705882352941" d="M 23.5 5 L 25 5.5 L 20.5 8 L 21.5 6 L 23.5 5 Z " /><path fill="rgb(182,94,195)" stroke="rgb(182,94,195)" stroke-width="1" opacity="0.5764705882352941" d="M 12.5 11 L 11.5 13 L 9.5 14 L 10.5 12 L 12.5 11 Z " /><path fill="rgb(182,94,195)" stroke="rgb(182,94,195)" stroke-width="1" opacity="0.5764705882352941" d="M 5.5 27 Q 5.3 31.3 8 32.5 L 5 30.5 L 5.5 27 Z " /><path fill="rgb(182,94,195)" stroke="rgb(182,94,195)" stroke-width="1" opacity="0.5764705882352941" d="M 9.5 33 L 11.5 36 L 9.5 33 Z " /><path fill="rgb(182,94,195)" stroke="rgb(182,94,195)" stroke-width="1" opacity="0.5764705882352941" d="M 13.5 36 L 19 40.5 L 16.5 39 L 13.5 36 Z " /><path fill="rgb(182,94,195)" stroke="rgb(182,94,195)" stroke-width="1" opacity="0.5764705882352941" d="M 20.5 41 L 22.5 44 L 20.5 41 Z " /><path fill="rgb(142,37,170)" stroke="rgb(142,37,170)" stroke-width="1" opacity="0.996078431372549" d="M 26.5 6 L 40 13 L 44 29.5 L 40.5 27 L 36 23.5 L 26 7.5 L 26.5 6 Z " /><path fill="rgb(142,37,170)" stroke="rgb(142,37,170)" stroke-width="1" opacity="0.996078431372549" d="M 34.5 25 L 33.5 27 L 34.5 25 Z " /><path fill="rgb(142,37,170)" stroke="rgb(142,37,170)" stroke-width="1" opacity="0.996078431372549" d="M 29.5 29 L 27.5 32 L 29.5 29 Z " /><path fill="rgb(185,103,199)" stroke="rgb(185,103,199)" stroke-width="1" opacity="0.996078431372549" d="M 15.5 25 L 19.5 30 L 15.5 25 Z " /><path fill="rgb(185,103,199)" stroke="rgb(185,103,199)" stroke-width="1" opacity="0.996078431372549" d="M 10.5 26 L 9.5 28 L 10.5 26 Z " /><path fill="rgb(185,103,199)" stroke="rgb(185,103,199)" stroke-width="1" opacity="0.996078431372549" d="M 6.5 29 L 9 32.5 L 6 30.5 L 6.5 29 Z " /><path fill="rgb(185,103,199)" stroke="rgb(185,103,199)" stroke-width="1" opacity="0.996078431372549" d="M 21.5 30 L 24.5 34 L 21.5 30 Z " /><path fill="rgb(185,103,199)" stroke="rgb(185,103,199)" stroke-width="1" opacity="0.996078431372549" d="M 10.5 33 L 12.5 36 L 10.5 33 Z " /><path fill="rgb(185,103,199)" stroke="rgb(185,103,199)" stroke-width="1" opacity="0.996078431372549" d="M 14.5 36 L 15.5 38 L 14.5 36 Z " /><path fill="rgb(185,103,199)" stroke="rgb(185,103,199)" stroke-width="1" opacity="0.996078431372549" d="M 18.5 39 L 19.5 41 L 18.5 39 Z " /><path fill="rgb(185,103,199)" stroke="rgb(185,103,199)" stroke-width="1" opacity="0.996078431372549" d="M 21.5 41 L 23.5 44 L 21.5 41 Z " /><path fill="rgb(186,104,200)" stroke="rgb(186,104,200)" stroke-width="1" opacity="1" d="M 12.5 24 L 25 34.5 L 24.5 44 L 7 30.5 L 8.5 27 Q 9.8 29.3 11 26.5 L 12.5 24 Z " /><path fill="rgb(113,32,157)" stroke="rgb(113,32,157)" stroke-width="1" opacity="0.9725490196078431" d="M 32.5 27 L 31.5 29 L 32.5 27 Z " /><path fill="rgb(113,32,157)" stroke="rgb(113,32,157)" stroke-width="1" opacity="0.9725490196078431" d="M 31.5 39 L 30.5 41 L 31.5 39 Z " /><path fill="rgb(113,32,157)" stroke="rgb(113,32,157)" stroke-width="1" opacity="0.9725490196078431" d="M 27.5 42 L 26.5 44 L 27.5 42 Z " /><path fill="rgb(106,27,154)" stroke="rgb(106,27,154)" stroke-width="1" opacity="1" d="M 35.5 25 L 37.5 25 L 44 30.5 L 25.5 44 L 25 33 L 35.5 25 Z " /><path fill="rgb(146,37,176)" stroke="rgb(146,37,176)" stroke-width="1" opacity="0.30980392156862746" d="M 25.5 5 L 34 9.5 L 32.5 9 L 25.5 6 L 25.5 5 Z " /><path fill="rgb(146,37,176)" stroke="rgb(146,37,176)" stroke-width="1" opacity="0.30980392156862746" d="M 39.5 12 L 40.5 14 L 39.5 12 Z " /><path fill="rgb(146,37,176)" stroke="rgb(146,37,176)" stroke-width="1" opacity="0.30980392156862746" d="M 43.5 31 L 42.5 33 L 43.5 31 Z " /><path fill="rgb(146,37,176)" stroke="rgb(146,37,176)" stroke-width="1" opacity="0.30980392156862746" d="M 39.5 34 L 38.5 36 L 39.5 34 Z " /><path fill="rgb(146,37,176)" stroke="rgb(146,37,176)" stroke-width="1" opacity="0.30980392156862746" d="M 35.5 37 L 34.5 39 L 35.5 37 Z " /><path fill="rgb(146,37,176)" stroke="rgb(146,37,176)" stroke-width="1" opacity="0.30980392156862746" d="M 32.5 39 L 30.5 42 L 32.5 39 Z " /><path fill="rgb(146,37,176)" stroke="rgb(146,37,176)" stroke-width="1" opacity="0.30980392156862746" d="M 28.5 42 L 26.5 45 L 28.5 42 Z " /></svg>