<svg width="50" height="50" version="1.1" xmlns="http://www.w3.org/2000/svg" desc="Created with imagetracer.js version 1.2.6" ><path fill="rgb(0,0,0)" stroke="rgb(0,0,0)" stroke-width="1" opacity="0" d="M 0 0 L 50 0 L 50 50 L 0 50 L 0 0 Z M 25 5 L 5 26 L 26 45 L 45 25 L 25 5 Z " /><path fill="rgb(64,164,244)" stroke="rgb(64,164,244)" stroke-width="1" opacity="1" d="M 16.5 20 L 15.5 22 L 16.5 20 Z " /><path fill="rgb(64,164,244)" stroke="rgb(64,164,244)" stroke-width="1" opacity="1" d="M 15.5 24 L 16.5 26 L 15.5 24 Z " /><path fill="rgb(64,164,244)" stroke="rgb(64,164,244)" stroke-width="1" opacity="1" d="M 21.5 24 L 20.5 26 L 21.5 24 Z " /><path fill="rgb(29,135,227)" stroke="rgb(29,135,227)" stroke-width="1" opacity="0.5019607843137255" d="M 24.5 5 L 5.5 25 L 24.5 5 Z " /><path fill="rgb(32,149,242)" stroke="rgb(32,149,242)" stroke-width="1" opacity="1" d="M 24.5 6 L 26 9.5 L 26 15.5 L 29 33 L 12.5 28 L 6 24.5 L 24.5 6 Z M 20 16 L 17 17 L 15 25 Q 16 27 21 26 L 22 25 L 23 17 L 20 16 Z " /><path fill="rgb(219,238,253)" stroke="rgb(219,238,253)" stroke-width="1" opacity="1" d="M 18.5 17 Q 22.3 16.3 23 18.5 L 23 21 Q 20.3 19.9 21 22.5 Q 23.7 24.2 19.5 26 Q 15.5 26.5 15 23.5 L 18.5 17 Z M 19 22 L 17 24 L 19 24 L 19 22 Z " /><path fill="rgb(13,74,165)" stroke="rgb(13,74,165)" stroke-width="1" opacity="0.996078431372549" d="M 42.5 26 L 26.5 43 L 26 41.5 L 29 33 L 42.5 26 Z " /><path fill="rgb(20,98,191)" stroke="rgb(20,98,191)" stroke-width="1" opacity="0.5254901960784314" d="M 25.5 5 L 45 25.5 L 25 44.5 L 44 24.5 L 25.5 5 Z " /><path fill="rgb(25,118,210)" stroke="rgb(25,118,210)" stroke-width="1" opacity="0.996078431372549" d="M 25.5 6 L 26 8.5 L 25 8.5 L 25.5 6 Z " /><path fill="rgb(25,118,210)" stroke="rgb(25,118,210)" stroke-width="1" opacity="0.996078431372549" d="M 26.5 13 L 27 15.5 L 26 15.5 L 26.5 13 Z " /><path fill="rgb(25,118,210)" stroke="rgb(25,118,210)" stroke-width="1" opacity="0.996078431372549" d="M 27.5 20 L 28 22.5 L 27 22.5 L 27.5 20 Z " /><path fill="rgb(25,118,210)" stroke="rgb(25,118,210)" stroke-width="1" opacity="0.996078431372549" d="M 6.5 25 L 29 33.5 L 24.5 44 L 6.5 25 Z " /><path fill="rgb(25,118,210)" stroke="rgb(25,118,210)" stroke-width="1" opacity="0.996078431372549" d="M 28.5 26 L 29 28.5 L 28 28.5 L 28.5 26 Z " /><path fill="rgb(21,101,192)" stroke="rgb(21,101,192)" stroke-width="1" opacity="1" d="M 26.5 7 L 44 24.5 L 44 26 L 29 33 L 27 13.5 L 26 12.5 L 26.5 7 Z " /><path fill="rgb(24,117,210)" stroke="rgb(24,117,210)" stroke-width="1" opacity="0.2901960784313726" d="M 6.5 26 L 24.5 45 L 6.5 26 Z " /></svg>