<svg width="50" height="50" version="1.1" xmlns="http://www.w3.org/2000/svg" desc="Created with imagetracer.js version 1.2.6" ><path fill="rgb(0,0,0)" stroke="rgb(0,0,0)" stroke-width="1" opacity="0" d="M 0 0 L 50 0 L 50 50 L 0 50 L 0 0 Z M 25 3 Q 27 8 21 6 L 19 8 L 19 23 L 15 18 L 9 19 L 15 34 L 19 36 L 17 44 Q 24 45 29 49 L 31 49 L 36 45 L 41 44 L 39 39 L 41 33 L 41 10 L 40 8 Q 35 9 36 7 L 30 3 L 25 3 Z " /><path fill="rgb(190,196,230)" stroke="rgb(190,196,230)" stroke-width="1" opacity="0.9921568627450981" d="M 26.5 8 L 29 8.5 L 26.5 9 L 26.5 8 Z " /><path fill="rgb(190,196,230)" stroke="rgb(190,196,230)" stroke-width="1" opacity="0.9921568627450981" d="M 35.5 10 L 37 12.5 L 34.5 13 L 35 11.5 L 35.5 10 Z " /><path fill="rgb(190,196,230)" stroke="rgb(190,196,230)" stroke-width="1" opacity="0.9921568627450981" d="M 29.5 11 L 30.5 13 L 29.5 11 Z " /><path fill="rgb(190,196,230)" stroke="rgb(190,196,230)" stroke-width="1" opacity="0.9921568627450981" d="M 30.5 14 L 31 15.5 L 28.5 17 L 28.5 16 Q 31 16.7 30.5 14 Z " /><path fill="rgb(190,196,230)" stroke="rgb(190,196,230)" stroke-width="1" opacity="0.9921568627450981" d="M 21.5 16 L 24 16.5 L 21.5 17 L 21.5 16 Z " /><path fill="rgb(190,196,230)" stroke="rgb(190,196,230)" stroke-width="1" opacity="0.9921568627450981" d="M 35.5 16 L 40 17.5 L 31.5 19 L 31.5 18 Q 36 19.3 35.5 16 Z " /><path fill="rgb(190,196,230)" stroke="rgb(190,196,230)" stroke-width="1" opacity="0.9921568627450981" d="M 16.5 27 L 15.5 29 L 16.5 27 Z " /><path fill="rgb(172,179,223)" stroke="rgb(172,179,223)" stroke-width="1" opacity="0.984313725490196" d="M 21.5 11 L 24 11.5 L 21.5 12 L 21.5 11 Z " /><path fill="rgb(172,179,223)" stroke="rgb(172,179,223)" stroke-width="1" opacity="0.984313725490196" d="M 21.5 13 L 24 13.5 L 21.5 14 L 21.5 13 Z " /><path fill="rgb(172,179,223)" stroke="rgb(172,179,223)" stroke-width="1" opacity="0.984313725490196" d="M 35.5 13 L 39.5 14 L 41 13.5 L 40.5 15 L 35 15 L 35.5 13 Z " /><path fill="rgb(172,179,223)" stroke="rgb(172,179,223)" stroke-width="1" opacity="0.984313725490196" d="M 30.5 16 L 31 18.5 L 30 18.5 L 30.5 16 Z " /><path fill="rgb(172,179,223)" stroke="rgb(172,179,223)" stroke-width="1" opacity="0.984313725490196" d="M 14.5 22 L 12.5 25 L 11 24.5 L 14.5 22 Z " /><path fill="rgb(172,179,223)" stroke="rgb(172,179,223)" stroke-width="1" opacity="0.984313725490196" d="M 13.5 27 L 15 30.5 L 14 30.5 L 13.5 27 Z " /><path fill="rgb(196,201,232)" stroke="rgb(196,201,232)" stroke-width="1" opacity="0.5843137254901961" d="M 26.5 3 L 25.5 5 L 26.5 3 Z " /><path fill="rgb(196,201,232)" stroke="rgb(196,201,232)" stroke-width="1" opacity="0.5843137254901961" d="M 31.5 5 L 34 5.5 L 30.5 7 L 31.5 5 Z " /><path fill="rgb(196,201,232)" stroke="rgb(196,201,232)" stroke-width="1" opacity="0.5843137254901961" d="M 21.5 6 L 25 7.5 L 23.5 7 L 20.5 8 L 21.5 6 Z " /><path fill="rgb(196,201,232)" stroke="rgb(196,201,232)" stroke-width="1" opacity="0.5843137254901961" d="M 35.5 7 L 36 9.5 L 35 9.5 L 35.5 7 Z " /><path fill="rgb(196,201,232)" stroke="rgb(196,201,232)" stroke-width="1" opacity="0.5843137254901961" d="M 40.5 10 L 41 12.5 L 40 12.5 L 40.5 10 Z " /><path fill="rgb(196,201,232)" stroke="rgb(196,201,232)" stroke-width="1" opacity="0.5843137254901961" d="M 40.5 15 L 41 17.5 L 40 17.5 L 40.5 15 Z " /><path fill="rgb(196,201,232)" stroke="rgb(196,201,232)" stroke-width="1" opacity="0.5843137254901961" d="M 40.5 20 L 41 30.5 L 40 30.5 L 40.5 20 Z " /><path fill="rgb(196,201,232)" stroke="rgb(196,201,232)" stroke-width="1" opacity="0.5843137254901961" d="M 18.5 35 L 19.5 37 L 18.5 35 Z " /><path fill="rgb(196,201,232)" stroke="rgb(196,201,232)" stroke-width="1" opacity="0.996078431372549" d="M 30.5 7 L 29.5 9 L 30.5 7 Z " /><path fill="rgb(196,201,232)" stroke="rgb(196,201,232)" stroke-width="1" opacity="0.996078431372549" d="M 14.5 19 L 13.5 21 L 14.5 19 Z " /><path fill="rgb(196,201,232)" stroke="rgb(196,201,232)" stroke-width="1" opacity="0.996078431372549" d="M 16.5 22 L 17.5 24 L 16.5 22 Z " /><path fill="rgb(196,201,232)" stroke="rgb(196,201,232)" stroke-width="1" opacity="0.996078431372549" d="M 22.5 22 L 24 22.5 L 22 23 L 21.5 25 L 21 23.5 L 22.5 22 Z " /><path fill="rgb(196,201,232)" stroke="rgb(196,201,232)" stroke-width="1" opacity="0.996078431372549" d="M 16.5 33 L 17.5 35 L 16.5 33 Z " /><path fill="rgb(197,202,233)" stroke="rgb(197,202,233)" stroke-width="1" opacity="1" d="M 26 4 Q 31.6 1.8 30 7.5 L 31 7.5 Q 30.2 4.9 33.5 6 L 35 9 L 26.5 8 L 25 11 L 20 11 L 20 8.5 L 24 7 L 24.5 9 L 26 4 Z " /><path fill="rgb(197,202,233)" stroke="rgb(197,202,233)" stroke-width="1" opacity="1" d="M 37.5 9 Q 41.7 7.9 40 12 L 36 12 L 36 10.5 L 37.5 9 Z " /><path fill="rgb(197,202,233)" stroke="rgb(197,202,233)" stroke-width="1" opacity="1" d="M 26.5 11 L 31.5 13 L 33.5 12 L 35 16 L 31 16 Q 32.3 13 28.5 14 L 26.5 14 Q 24.3 14.8 25 12.5 L 26.5 11 Z " /><path fill="rgb(197,202,233)" stroke="rgb(197,202,233)" stroke-width="1" opacity="1" d="M 21.5 14 L 25 15.5 L 20.5 16 L 21.5 14 Z " /><path fill="rgb(197,202,233)" stroke="rgb(197,202,233)" stroke-width="1" opacity="1" d="M 36 15 Q 41.2 13.3 40 17 Q 34.8 18.7 36 15 Z " /><path fill="rgb(197,202,233)" stroke="rgb(197,202,233)" stroke-width="1" opacity="1" d="M 25 17 L 30 17 L 30 19 L 35 19 Q 33.9 21.7 36.5 21 L 38.5 20 L 40 22.5 L 37 23.5 L 37 25 L 40 25.5 L 40 32.5 L 39 36 L 19.5 36 L 15 31.5 Q 14.5 27.5 17.5 27 L 20 27 L 20 20.5 L 23.5 19 L 25 19.5 L 25 17 Z M 23 22 L 21 24 Q 20 26 24 25 Q 25 21 23 22 Z M 27 22 L 27 25 Q 31 26 30 24 L 27 22 Z M 34 22 L 32 24 Q 31 26 35 25 L 34 22 Z " /><path fill="rgb(197,202,233)" stroke="rgb(197,202,233)" stroke-width="1" opacity="1" d="M 12.5 19 L 14 19.5 Q 12 24 10 20.5 L 12.5 19 Z " /><path fill="rgb(197,202,233)" stroke="rgb(197,202,233)" stroke-width="1" opacity="1" d="M 14.5 23 L 17 23.5 L 13.5 26 L 13 24.5 L 14.5 23 Z " /><path fill="rgb(163,172,219)" stroke="rgb(163,172,219)" stroke-width="1" opacity="0.6235294117647059" d="M 19.5 37 L 20 39.5 L 19 39.5 L 19.5 37 Z " /><path fill="rgb(163,172,219)" stroke="rgb(163,172,219)" stroke-width="1" opacity="0.6235294117647059" d="M 26.5 46 L 29.5 48 L 31 47.5 L 28.5 49 L 26.5 46 Z " /><path fill="rgb(184,191,228)" stroke="rgb(184,191,228)" stroke-width="1" opacity="0.17254901960784313" d="M 29.5 3 L 31 5.5 L 30 5.5 L 29.5 3 Z " /><path fill="rgb(184,191,228)" stroke="rgb(184,191,228)" stroke-width="1" opacity="0.17254901960784313" d="M 34.5 5 L 35.5 7 L 34.5 5 Z " /><path fill="rgb(184,191,228)" stroke="rgb(184,191,228)" stroke-width="1" opacity="0.17254901960784313" d="M 20.5 6 L 20 7.5 L 19.5 25 Q 16.8 23.7 19 22.5 L 19 7.5 L 20.5 6 Z " /><path fill="rgb(184,191,228)" stroke="rgb(184,191,228)" stroke-width="1" opacity="0.17254901960784313" d="M 39.5 8 L 40.5 10 L 39.5 8 Z " /><path fill="rgb(184,191,228)" stroke="rgb(184,191,228)" stroke-width="1" opacity="0.17254901960784313" d="M 11.5 18 L 15 18.5 L 11.5 19 L 11.5 18 Z " /><path fill="rgb(184,191,228)" stroke="rgb(184,191,228)" stroke-width="1" opacity="0.17254901960784313" d="M 9.5 19 L 10 21.5 L 9 21.5 L 9.5 19 Z " /><path fill="rgb(184,191,228)" stroke="rgb(184,191,228)" stroke-width="1" opacity="0.17254901960784313" d="M 15.5 33 L 17.5 36 L 15.5 33 Z " /><path fill="rgb(184,191,228)" stroke="rgb(184,191,228)" stroke-width="1" opacity="0.17254901960784313" d="M 32.5 46 L 30.5 49 L 32.5 46 Z " /><path fill="rgb(130,142,206)" stroke="rgb(130,142,206)" stroke-width="1" opacity="0.9921568627450981" d="M 22 23 Q 25 22 24 25 Q 21 26 22 23 Z " /><path fill="rgb(130,142,206)" stroke="rgb(130,142,206)" stroke-width="1" opacity="0.9921568627450981" d="M 27.5 23 Q 29.8 22.3 29 24.5 L 27.5 23 Z " /><path fill="rgb(130,142,206)" stroke="rgb(130,142,206)" stroke-width="1" opacity="0.9921568627450981" d="M 20 37 L 39 37.5 L 37.5 39 L 20 39 L 20 37 Z " /><path fill="rgb(159,167,217)" stroke="rgb(159,167,217)" stroke-width="1" opacity="0.9921568627450981" d="M 25 9 L 35 10 Q 36.4 13.7 30.5 12 L 25 11 L 25 9 Z " /><path fill="rgb(159,167,217)" stroke="rgb(159,167,217)" stroke-width="1" opacity="0.9921568627450981" d="M 20 12 L 25 12 L 25 13.5 L 23.5 13 L 20.5 14 L 20 12 Z " /><path fill="rgb(159,167,217)" stroke="rgb(159,167,217)" stroke-width="1" opacity="0.9921568627450981" d="M 36.5 13 L 40 13.5 L 36.5 14 L 36.5 13 Z " /><path fill="rgb(159,167,217)" stroke="rgb(159,167,217)" stroke-width="1" opacity="0.9921568627450981" d="M 26.5 14 L 30 15.5 L 25.5 16 L 26.5 14 Z " /><path fill="rgb(159,167,217)" stroke="rgb(159,167,217)" stroke-width="1" opacity="0.9921568627450981" d="M 31 16 L 35 17.5 L 31 18 L 31 16 Z " /><path fill="rgb(159,167,217)" stroke="rgb(159,167,217)" stroke-width="1" opacity="0.9921568627450981" d="M 20 17 L 25 17 L 25 19 L 22.5 18 L 20 19 L 20 17 Z " /><path fill="rgb(159,167,217)" stroke="rgb(159,167,217)" stroke-width="1" opacity="0.9921568627450981" d="M 36 18 Q 41.2 16.3 40 20 Q 34.8 21.7 36 18 Z " /><path fill="rgb(159,167,217)" stroke="rgb(159,167,217)" stroke-width="1" opacity="0.9921568627450981" d="M 15.5 20 L 16.5 22 L 11.5 24 L 13.5 21 L 15.5 20 Z " /><path fill="rgb(159,167,217)" stroke="rgb(159,167,217)" stroke-width="1" opacity="0.9921568627450981" d="M 16.5 25 L 19 25.5 L 14.5 29 L 14 26 L 16.5 25 Z " /><path fill="rgb(159,167,217)" stroke="rgb(159,167,217)" stroke-width="1" opacity="0.9921568627450981" d="M 20.5 36 L 38 36.5 L 20.5 37 L 20.5 36 Z " /><path fill="rgb(159,167,217)" stroke="rgb(159,167,217)" stroke-width="1" opacity="0.9921568627450981" d="M 20.5 39 L 38.5 39 L 39 41.5 L 40 44 L 35.5 44 L 28.5 48 Q 25.5 43 18 44 L 20.5 39 Z " /></svg>