<svg width="50" height="50" version="1.1" xmlns="http://www.w3.org/2000/svg" desc="Created with imagetracer.js version 1.2.6" ><path fill="rgb(58,144,61)" stroke="rgb(58,144,61)" stroke-width="1" opacity="0.3764705882352941" d="M 25.5 4 L 27.5 7 L 25.5 4 Z " /><path fill="rgb(58,144,61)" stroke="rgb(58,144,61)" stroke-width="1" opacity="0.3764705882352941" d="M 18.5 5 L 21 5.5 L 18.5 6 L 18.5 5 Z " /><path fill="rgb(58,144,61)" stroke="rgb(58,144,61)" stroke-width="1" opacity="0.3764705882352941" d="M 11.5 8 L 8.5 12 L 11.5 8 Z " /><path fill="rgb(58,144,61)" stroke="rgb(58,144,61)" stroke-width="1" opacity="0.3764705882352941" d="M 30.5 12 L 31.5 14 L 30.5 12 Z " /><path fill="rgb(58,144,61)" stroke="rgb(58,144,61)" stroke-width="1" opacity="0.3764705882352941" d="M 7.5 13 L 5.5 16 L 7.5 13 Z " /><path fill="rgb(58,144,61)" stroke="rgb(58,144,61)" stroke-width="1" opacity="0.3764705882352941" d="M 5.5 17 L 7 19.5 L 5 18.5 L 5.5 17 Z " /><path fill="rgb(58,144,61)" stroke="rgb(58,144,61)" stroke-width="1" opacity="0.3764705882352941" d="M 7.5 21 L 11 26.5 L 9 25.5 L 7.5 21 Z " /><path fill="rgb(58,144,61)" stroke="rgb(58,144,61)" stroke-width="1" opacity="0.3764705882352941" d="M 11.5 28 L 18 29.5 L 12.5 30 L 11.5 28 Z " /><path fill="rgb(68,157,72)" stroke="rgb(68,157,72)" stroke-width="1" opacity="0.996078431372549" d="M 21.5 5 Q 25.9 3.5 25 6.5 L 17.5 15 L 5.5 17 L 8 13.5 L 12 7 L 21.5 5 Z M 16 9 Q 11 11 15 13 L 18 11 Q 19 8 16 9 Z " /><path fill="rgb(68,157,72)" stroke="rgb(68,157,72)" stroke-width="1" opacity="0.996078431372549" d="M 20.5 16 L 21.5 18 L 20.5 16 Z " /><path fill="rgb(68,157,72)" stroke="rgb(68,157,72)" stroke-width="1" opacity="0.996078431372549" d="M 17.5 20 L 16.5 22 L 17.5 20 Z " /><path fill="rgb(0,0,0)" stroke="rgb(0,0,0)" stroke-width="1" opacity="0" d="M 0 0 L 50 0 L 50 50 L 0 50 L 0 0 Z M 26 4 L 25 5 L 14 6 L 5 16 L 5 19 L 11 29 Q 12 31 17 30 L 16 32 L 21 40 L 28 44 L 39 44 L 45 33 L 45 31 L 40 24 Q 39 19 33 20 L 33 19 L 32 14 L 26 4 Z " /><path fill="rgb(56,141,60)" stroke="rgb(56,141,60)" stroke-width="1" opacity="0.996078431372549" d="M 22.5 9 L 21.5 11 L 22.5 9 Z " /><path fill="rgb(56,141,60)" stroke="rgb(56,141,60)" stroke-width="1" opacity="0.996078431372549" d="M 19.5 13 L 18 15.5 L 19 16.5 L 21 21 L 23 21.5 L 17.5 29 Q 12.3 30.3 11 27.5 L 6 17 Q 8.4 15.3 14.5 16 L 19.5 13 Z M 15 17 L 16 21 L 13 21 L 16 25 L 18 21 Q 20 15 15 17 Z M 12 25 L 12 28 L 16 28 L 16 27 L 12 25 Z " /><path fill="rgb(46,125,50)" stroke="rgb(46,125,50)" stroke-width="1" opacity="0.9725490196078431" d="M 25.5 6 L 28 7.5 L 33 17.5 L 32 20 L 24.5 19 L 21 21 L 18 15.5 L 25.5 6 Z M 22 13 L 20 15 L 22 18 L 24 17 L 22 13 Z M 28 14 Q 27 18 30 19 L 31 16 L 28 14 Z " /><path fill="rgb(124,179,64)" stroke="rgb(124,179,64)" stroke-width="1" opacity="0.34901960784313724" d="M 32.5 20 L 36 20.5 L 32.5 21 L 32.5 20 Z " /><path fill="rgb(124,179,64)" stroke="rgb(124,179,64)" stroke-width="1" opacity="0.34901960784313724" d="M 37.5 21 L 39.5 24 L 37.5 21 Z " /><path fill="rgb(124,179,64)" stroke="rgb(124,179,64)" stroke-width="1" opacity="0.34901960784313724" d="M 40.5 25 L 42.5 28 L 40.5 25 Z " /><path fill="rgb(124,179,64)" stroke="rgb(124,179,64)" stroke-width="1" opacity="0.34901960784313724" d="M 43.5 29 L 44.5 31 L 43.5 29 Z " /><path fill="rgb(124,179,64)" stroke="rgb(124,179,64)" stroke-width="1" opacity="0.34901960784313724" d="M 17.5 30 L 17 31.5 L 25 42.5 L 21 39.5 L 16 31.5 L 17.5 30 Z " /><path fill="rgb(124,179,64)" stroke="rgb(124,179,64)" stroke-width="1" opacity="0.34901960784313724" d="M 42.5 36 L 42 37.5 L 40.5 40 L 41 38.5 L 42.5 36 Z " /><path fill="rgb(124,179,64)" stroke="rgb(124,179,64)" stroke-width="1" opacity="0.34901960784313724" d="M 27.5 43 L 33 43.5 L 27.5 44 L 27.5 43 Z " /><path fill="rgb(236,244,233)" stroke="rgb(236,244,233)" stroke-width="1" opacity="1" d="M 14 10 L 17 10.5 L 14 12 L 14 10 Z " /><path fill="rgb(236,244,233)" stroke="rgb(236,244,233)" stroke-width="1" opacity="1" d="M 21.5 14 L 23 17 Q 19.5 18.1 21.5 14 Z " /><path fill="rgb(236,244,233)" stroke="rgb(236,244,233)" stroke-width="1" opacity="1" d="M 28 15 L 31 16.5 Q 29.5 19.5 28 16.5 L 28 15 Z " /><path fill="rgb(236,244,233)" stroke="rgb(236,244,233)" stroke-width="1" opacity="1" d="M 15 17 L 18 18.5 Q 18.8 20.8 16.5 20 L 15 17 Z " /><path fill="rgb(236,244,233)" stroke="rgb(236,244,233)" stroke-width="1" opacity="1" d="M 14 21 Q 17.3 19.9 16 24 Q 12.7 25.1 14 21 Z " /><path fill="rgb(236,244,233)" stroke="rgb(236,244,233)" stroke-width="1" opacity="1" d="M 24.5 23 Q 27.2 24.3 25 25.5 Q 25.7 28.1 23 27 L 24.5 23 Z " /><path fill="rgb(236,244,233)" stroke="rgb(236,244,233)" stroke-width="1" opacity="1" d="M 33 24 L 36 25.5 Q 36.8 27.8 34.5 27 L 33 24 Z " /><path fill="rgb(236,244,233)" stroke="rgb(236,244,233)" stroke-width="1" opacity="1" d="M 13.5 25 L 15 28 L 12 26.5 L 13.5 25 Z " /><path fill="rgb(236,244,233)" stroke="rgb(236,244,233)" stroke-width="1" opacity="1" d="M 27 29 Q 30.3 27.9 29 32 Q 25.7 33.1 27 29 Z " /><path fill="rgb(236,244,233)" stroke="rgb(236,244,233)" stroke-width="1" opacity="1" d="M 19 30 Q 22.3 28.9 21 33 Q 17.7 34.1 19 30 Z " /><path fill="rgb(236,244,233)" stroke="rgb(236,244,233)" stroke-width="1" opacity="1" d="M 33.5 32 Q 35.8 31.3 35 33.5 L 32 35 L 33.5 32 Z " /><path fill="rgb(236,244,233)" stroke="rgb(236,244,233)" stroke-width="1" opacity="1" d="M 23 35 Q 26.3 33.9 25 38 Q 21.7 39.1 23 35 Z " /><path fill="rgb(236,244,233)" stroke="rgb(236,244,233)" stroke-width="1" opacity="1" d="M 34 36 Q 37 35 36 38 Q 33 39 34 36 Z " /><path fill="rgb(236,244,233)" stroke="rgb(236,244,233)" stroke-width="1" opacity="1" d="M 36.5 39 Q 38.8 38.3 38 40.5 Q 36.5 43.5 35 40.5 L 36.5 39 Z " /><path fill="rgb(123,178,67)" stroke="rgb(123,178,67)" stroke-width="1" opacity="0.9921568627450981" d="M 24.5 20 L 31 29 L 34 29.5 L 30 32.5 L 24.5 42 L 17 31.5 L 24.5 20 Z M 23 23 L 23 27 L 26 26 Q 27 21 23 23 Z M 27 28 L 26 31 L 29 32 L 30 30 L 27 28 Z M 20 30 L 18 32 L 20 34 L 22 33 Q 23 29 20 30 Z M 24 35 L 22 37 L 23 39 L 26 38 Q 27 34 24 35 Z " /><path fill="rgb(123,178,67)" stroke="rgb(123,178,67)" stroke-width="1" opacity="0.9921568627450981" d="M 38.5 23 L 39.5 25 L 38.5 23 Z " /><path fill="rgb(123,178,67)" stroke="rgb(123,178,67)" stroke-width="1" opacity="0.9921568627450981" d="M 41.5 27 L 42.5 29 L 41.5 27 Z " /><path fill="rgb(123,178,67)" stroke="rgb(123,178,67)" stroke-width="1" opacity="0.9921568627450981" d="M 36.5 30 L 41 30.5 L 36.5 31 L 36.5 30 Z " /><path fill="rgb(123,178,67)" stroke="rgb(123,178,67)" stroke-width="1" opacity="0.9921568627450981" d="M 36.5 38 L 39 39.5 L 38.5 41 L 38 39 L 36.5 38 Z " /><path fill="rgb(144,195,92)" stroke="rgb(144,195,92)" stroke-width="1" opacity="0.996078431372549" d="M 15.5 9 L 18 10.5 L 16 11.5 L 16.5 10 L 15.5 9 Z " /><path fill="rgb(144,195,92)" stroke="rgb(144,195,92)" stroke-width="1" opacity="0.996078431372549" d="M 13.5 11 L 14.5 13 L 13.5 11 Z " /><path fill="rgb(144,195,92)" stroke="rgb(144,195,92)" stroke-width="1" opacity="0.996078431372549" d="M 25.5 20 L 38 22 L 44 30.5 L 41.5 31 L 31 29 L 25.5 20 Z M 33 24 L 35 27 Q 37 28 36 26 L 33 24 Z " /><path fill="rgb(144,195,92)" stroke="rgb(144,195,92)" stroke-width="1" opacity="0.996078431372549" d="M 27.5 28 L 30 29.5 L 29.5 31 L 29 29 L 27.5 28 Z " /><path fill="rgb(144,195,92)" stroke="rgb(144,195,92)" stroke-width="1" opacity="0.996078431372549" d="M 21.5 30 L 22 32.5 L 19.5 34 L 18 31.5 L 19 31.5 Q 18.3 34.1 21 33 L 21.5 30 Z " /><path fill="rgb(144,195,92)" stroke="rgb(144,195,92)" stroke-width="1" opacity="0.996078431372549" d="M 34.5 34 L 37 37.5 L 35.5 40 L 33 36.5 L 34.5 34 Z M 34 36 Q 33 39 36 38 Q 37 35 34 36 Z " /><path fill="rgb(144,195,92)" stroke="rgb(144,195,92)" stroke-width="1" opacity="0.996078431372549" d="M 25.5 35 L 26 37.5 L 23.5 39 L 23.5 38 Q 26.4 38.7 25.5 35 Z " /><path fill="rgb(104,160,57)" stroke="rgb(104,160,57)" stroke-width="1" opacity="0.9764705882352941" d="M 24.5 19 L 26 19.5 L 23.5 21 L 24.5 19 Z " /><path fill="rgb(104,160,57)" stroke="rgb(104,160,57)" stroke-width="1" opacity="0.9764705882352941" d="M 32.5 30 L 42.5 31 L 44 32.5 L 37.5 44 L 25 43 L 32.5 30 Z M 34 31 L 32 33 Q 31 36 34 35 L 33 37 Q 32 40 35 39 L 35 42 L 39 41 L 37 38 Q 38 34 35 35 L 35 31 L 34 31 Z " /></svg>