<svg width="50" height="50" version="1.1" xmlns="http://www.w3.org/2000/svg" desc="Created with imagetracer.js version 1.2.6" ><path fill="rgb(35,192,244)" stroke="rgb(35,192,244)" stroke-width="1" opacity="0.050980392156862744" d="M 10.5 10 L 9.5 12 L 10.5 10 Z " /><path fill="rgb(35,192,244)" stroke="rgb(35,192,244)" stroke-width="1" opacity="0.050980392156862744" d="M 40.5 39 L 39.5 41 L 40.5 39 Z " /><path fill="rgb(35,192,244)" stroke="rgb(35,192,244)" stroke-width="1" opacity="0.050980392156862744" d="M 46.5 41 L 45.5 43 L 44 42.5 L 46.5 41 Z " /><path fill="rgb(35,192,244)" stroke="rgb(35,192,244)" stroke-width="1" opacity="0.050980392156862744" d="M 42.5 44 L 43 45.5 L 41 46.5 L 42.5 44 Z " /><path fill="rgb(0,0,0)" stroke="rgb(0,0,0)" stroke-width="1" opacity="0" d="M 0 0 L 50 0 L 50 50 L 0 50 L 0 0 Z M 9 2 L 7 8 L 3 10 L 6 10 L 9 17 L 9 13 L 14 10 L 10 8 L 9 2 Z M 37 5 L 34 9 L 30 8 Q 31 12 28 13 L 26 12 Q 16 11 12 15 Q 7 18 5 25 Q 3 34 7 39 L 17 46 Q 26 47 32 44 Q 37 40 39 34 L 38 22 L 42 20 L 41 17 L 44 15 Q 46 16 45 13 L 37 5 Z M 42 36 L 41 39 L 36 42 L 40 43 L 42 47 L 43 43 L 47 42 L 45 41 L 42 36 Z " /><path fill="rgb(180,231,253)" stroke="rgb(180,231,253)" stroke-width="1" opacity="0.23921568627450981" d="M 30.5 10 L 28.5 13 L 30.5 10 Z " /><path fill="rgb(180,231,253)" stroke="rgb(180,231,253)" stroke-width="1" opacity="0.23921568627450981" d="M 18.5 12 L 26 12.5 L 18.5 13 L 18.5 12 Z " /><path fill="rgb(180,231,253)" stroke="rgb(180,231,253)" stroke-width="1" opacity="0.23921568627450981" d="M 11.5 15 L 8 19.5 L 6.5 23 L 6 21.5 L 11.5 15 Z " /><path fill="rgb(180,231,253)" stroke="rgb(180,231,253)" stroke-width="1" opacity="0.23921568627450981" d="M 39.5 19 L 38 21.5 L 37.5 23 L 37 21.5 L 39.5 19 Z " /><path fill="rgb(180,231,253)" stroke="rgb(180,231,253)" stroke-width="1" opacity="0.23921568627450981" d="M 38.5 25 L 39 27.5 L 38 27.5 L 38.5 25 Z " /><path fill="rgb(180,231,253)" stroke="rgb(180,231,253)" stroke-width="1" opacity="0.23921568627450981" d="M 38.5 30 L 39 33.5 L 38 33.5 L 38.5 30 Z " /><path fill="rgb(180,231,253)" stroke="rgb(180,231,253)" stroke-width="1" opacity="0.23921568627450981" d="M 5.5 32 L 6 34.5 L 5 34.5 L 5.5 32 Z " /><path fill="rgb(180,231,253)" stroke="rgb(180,231,253)" stroke-width="1" opacity="0.23921568627450981" d="M 37.5 35 L 38 36.5 L 36 37.5 L 37.5 35 Z " /><path fill="rgb(180,231,253)" stroke="rgb(180,231,253)" stroke-width="1" opacity="0.23921568627450981" d="M 7.5 38 L 12.5 44 L 7.5 38 Z " /><path fill="rgb(180,231,253)" stroke="rgb(180,231,253)" stroke-width="1" opacity="0.23921568627450981" d="M 35.5 39 L 31.5 44 L 28.5 45 L 28.5 44 L 35.5 39 Z " /><path fill="rgb(180,231,253)" stroke="rgb(180,231,253)" stroke-width="1" opacity="0.23921568627450981" d="M 16.5 45 L 19 45.5 L 16.5 46 L 16.5 45 Z " /><path fill="rgb(135,106,95)" stroke="rgb(135,106,95)" stroke-width="1" opacity="0.8627450980392157" d="M 36.5 5 L 45 12.5 Q 46.1 15.8 43.5 15 L 35.5 19 L 31 13.5 L 36.5 5 Z " /><path fill="rgb(153,215,243)" stroke="rgb(153,215,243)" stroke-width="1" opacity="0.996078431372549" d="M 32.5 11 L 31.5 13 L 32.5 11 Z " /><path fill="rgb(153,215,243)" stroke="rgb(153,215,243)" stroke-width="1" opacity="0.996078431372549" d="M 30.5 14 L 35.5 20 L 30.5 14 Z " /><path fill="rgb(153,215,243)" stroke="rgb(153,215,243)" stroke-width="1" opacity="0.996078431372549" d="M 38.5 17 L 37.5 19 L 38.5 17 Z " /><path fill="rgb(153,215,243)" stroke="rgb(153,215,243)" stroke-width="1" opacity="0.996078431372549" d="M 9.5 23 Q 11.8 22.3 11 24.5 L 9.5 23 Z " /><path fill="rgb(153,215,243)" stroke="rgb(153,215,243)" stroke-width="1" opacity="0.996078431372549" d="M 31.5 29 L 32.5 31 L 31.5 29 Z " /><path fill="rgb(153,215,243)" stroke="rgb(153,215,243)" stroke-width="1" opacity="0.996078431372549" d="M 15.5 33 L 16.5 35 L 15.5 33 Z " /><path fill="rgb(153,215,243)" stroke="rgb(153,215,243)" stroke-width="1" opacity="0.996078431372549" d="M 30.5 39 L 29.5 41 L 30.5 39 Z " /><path fill="rgb(178,228,251)" stroke="rgb(178,228,251)" stroke-width="1" opacity="0.996078431372549" d="M 31 10 L 33 10.5 L 31 11.5 L 31 10 Z " /><path fill="rgb(178,228,251)" stroke="rgb(178,228,251)" stroke-width="1" opacity="0.996078431372549" d="M 30.5 15 L 34.5 20 L 30.5 15 Z " /><path fill="rgb(178,228,251)" stroke="rgb(178,228,251)" stroke-width="1" opacity="0.996078431372549" d="M 39.5 17 L 40 19 L 38 18.5 L 39.5 17 Z " /><path fill="rgb(178,228,251)" stroke="rgb(178,228,251)" stroke-width="1" opacity="0.996078431372549" d="M 27.5 22 L 30 23.5 L 29.5 25 L 29 23 L 27.5 22 Z " /><path fill="rgb(178,228,251)" stroke="rgb(178,228,251)" stroke-width="1" opacity="0.996078431372549" d="M 10.5 37 L 13.5 41 L 10.5 37 Z " /><path fill="rgb(178,228,251)" stroke="rgb(178,228,251)" stroke-width="1" opacity="0.996078431372549" d="M 9.5 39 L 11.5 42 L 9.5 39 Z " /><path fill="rgb(178,228,251)" stroke="rgb(178,228,251)" stroke-width="1" opacity="0.996078431372549" d="M 33.5 40 L 32.5 42 L 33.5 40 Z " /><path fill="rgb(179,229,252)" stroke="rgb(179,229,252)" stroke-width="1" opacity="1" d="M 30.5 12 L 30 13.5 L 30 15.5 L 34.5 20 L 37.5 19 L 36 21.5 Q 39.2 24.8 38 32.5 Q 36.2 39.7 30.5 43 Q 26.5 46.5 17.5 45 L 8 37.5 Q 4.5 33.5 6 24.5 L 12.5 16 Q 16.3 11.8 25.5 13 L 28.5 14 L 30.5 12 Z M 24 17 L 22 19 L 25 20 Q 26 16 24 17 Z M 19 21 L 17 23 Q 16 25 20 24 Q 21 20 19 21 Z M 9 22 L 8 26 Q 7 34 10 38 L 18 43 Q 26 44 30 41 L 35 35 L 34 32 L 30 28 Q 21 27 18 30 L 14 29 L 11 26 Q 12 21 9 22 Z M 27 22 L 27 25 Q 31 26 30 24 L 27 22 Z " /><path fill="rgb(75,193,247)" stroke="rgb(75,193,247)" stroke-width="1" opacity="1" d="M 19.5 22 L 20 24 L 18 23.5 L 19.5 22 Z " /><path fill="rgb(75,193,247)" stroke="rgb(75,193,247)" stroke-width="1" opacity="1" d="M 27.5 23 L 28.5 25 Q 25.7 25.7 27.5 23 Z " /><path fill="rgb(75,193,247)" stroke="rgb(75,193,247)" stroke-width="1" opacity="1" d="M 9.5 24 L 10.5 26 L 9.5 24 Z " /><path fill="rgb(75,193,247)" stroke="rgb(75,193,247)" stroke-width="1" opacity="1" d="M 8.5 27 L 9 30.5 L 8 30.5 L 8.5 27 Z " /><path fill="rgb(75,193,247)" stroke="rgb(75,193,247)" stroke-width="1" opacity="1" d="M 23.5 28 L 29 28.5 L 23.5 29 L 23.5 28 Z " /><path fill="rgb(75,193,247)" stroke="rgb(75,193,247)" stroke-width="1" opacity="1" d="M 14.5 34 L 15.5 36 L 14.5 34 Z " /><path fill="rgb(75,193,247)" stroke="rgb(75,193,247)" stroke-width="1" opacity="1" d="M 11.5 37 L 14.5 41 L 11.5 37 Z " /><path fill="rgb(75,193,247)" stroke="rgb(75,193,247)" stroke-width="1" opacity="1" d="M 20.5 37 L 22 37.5 L 20 38.5 L 22 39.5 L 20.5 40 Q 17.5 38.5 20.5 37 Z " /><path fill="rgb(75,193,247)" stroke="rgb(75,193,247)" stroke-width="1" opacity="1" d="M 20.5 42 L 24 42.5 L 20.5 43 L 20.5 42 Z " /><path fill="rgb(41,182,245)" stroke="rgb(41,182,245)" stroke-width="1" opacity="0.984313725490196" d="M 43.5 41 L 45 41.5 L 42 43.5 L 41.5 45 L 41 43.5 L 43.5 41 Z " /><path fill="rgb(41,182,246)" stroke="rgb(41,182,246)" stroke-width="1" opacity="1" d="M 8.5 7 L 10 9.5 L 8.5 12 L 8 10 L 6 9.5 L 8 9 L 8.5 7 Z " /><path fill="rgb(41,182,246)" stroke="rgb(41,182,246)" stroke-width="1" opacity="1" d="M 9.5 25 L 13.5 30 L 17.5 31 Q 21.2 27.7 29.5 29 L 33 31.5 L 34 34.5 L 29.5 40 Q 25.8 43.3 17.5 42 L 10 35.5 Q 7.4 31.9 9.5 25 Z M 23 31 Q 22 35 25 34 Q 26 30 23 31 Z M 16 33 L 14 35 Q 16 38 17 35 Q 18 32 16 33 Z M 27 35 Q 26 39 29 38 Q 30 34 27 35 Z M 21 37 L 19 39 L 22 40 Q 23 36 21 37 Z " /><path fill="rgb(41,182,246)" stroke="rgb(41,182,246)" stroke-width="1" opacity="1" d="M 41.5 40 Q 44.5 41.5 41.5 43 Q 38.5 41.5 41.5 40 Z " /><path fill="rgb(178,228,251)" stroke="rgb(178,228,251)" stroke-width="1" opacity="0.7568627450980392" d="M 31.5 8 L 32.5 10 L 30 9.5 L 31.5 8 Z " /><path fill="rgb(178,228,251)" stroke="rgb(178,228,251)" stroke-width="1" opacity="0.7568627450980392" d="M 30.5 11 L 28.5 14 L 26 13.5 L 30.5 11 Z " /><path fill="rgb(178,228,251)" stroke="rgb(178,228,251)" stroke-width="1" opacity="0.7568627450980392" d="M 12.5 15 L 11.5 17 L 12.5 15 Z " /><path fill="rgb(178,228,251)" stroke="rgb(178,228,251)" stroke-width="1" opacity="0.7568627450980392" d="M 40.5 17 Q 43.5 18.5 40.5 20 L 40.5 17 Z " /><path fill="rgb(178,228,251)" stroke="rgb(178,228,251)" stroke-width="1" opacity="0.7568627450980392" d="M 9.5 18 L 8.5 20 L 9.5 18 Z " /><path fill="rgb(178,228,251)" stroke="rgb(178,228,251)" stroke-width="1" opacity="0.7568627450980392" d="M 38.5 19 L 37.5 21 L 38.5 19 Z " /><path fill="rgb(178,228,251)" stroke="rgb(178,228,251)" stroke-width="1" opacity="0.7568627450980392" d="M 5.5 26 L 6 31.5 L 5 31.5 L 5.5 26 Z " /><path fill="rgb(178,228,251)" stroke="rgb(178,228,251)" stroke-width="1" opacity="0.7568627450980392" d="M 7.5 37 L 8.5 39 L 7.5 37 Z " /><path fill="rgb(178,228,251)" stroke="rgb(178,228,251)" stroke-width="1" opacity="0.7568627450980392" d="M 35.5 38 L 34.5 40 L 35.5 38 Z " /><path fill="rgb(178,228,251)" stroke="rgb(178,228,251)" stroke-width="1" opacity="0.7568627450980392" d="M 12.5 42 L 13.5 44 L 12.5 42 Z " /><path fill="rgb(178,228,251)" stroke="rgb(178,228,251)" stroke-width="1" opacity="0.7568627450980392" d="M 19.5 45 L 25 45.5 L 19.5 46 L 19.5 45 Z " /><path fill="rgb(40,182,246)" stroke="rgb(40,182,246)" stroke-width="1" opacity="0.3607843137254902" d="M 7.5 6 L 8 7.5 L 6 8.5 L 7.5 6 Z " /><path fill="rgb(40,182,246)" stroke="rgb(40,182,246)" stroke-width="1" opacity="0.3607843137254902" d="M 7.5 10 L 8 12.5 L 7 12.5 L 7.5 10 Z " /><path fill="rgb(40,182,246)" stroke="rgb(40,182,246)" stroke-width="1" opacity="0.3607843137254902" d="M 43.5 42 L 42.5 44 L 43.5 42 Z " /></svg>