<svg width="50" height="50" version="1.1" xmlns="http://www.w3.org/2000/svg" desc="Created with imagetracer.js version 1.2.6" ><path fill="rgb(106,70,70)" stroke="rgb(106,70,70)" stroke-width="1" opacity="0.03137254901960784" d="M 2 5 Q 5 4 4 7 Q 1 8 2 5 Z " /><path fill="rgb(106,70,70)" stroke="rgb(106,70,70)" stroke-width="1" opacity="0.03137254901960784" d="M 46 5 Q 49 4 48 7 Q 45 8 46 5 Z " /><path fill="rgb(106,70,70)" stroke="rgb(106,70,70)" stroke-width="1" opacity="0.03137254901960784" d="M 5.5 10 L 9 12.5 L 7.5 13 L 5.5 10 Z " /><path fill="rgb(106,70,70)" stroke="rgb(106,70,70)" stroke-width="1" opacity="0.03137254901960784" d="M 44.5 10 L 43.5 12 L 44.5 10 Z " /><path fill="rgb(106,70,70)" stroke="rgb(106,70,70)" stroke-width="1" opacity="0.03137254901960784" d="M 3.5 16 L 7.5 21 L 3.5 16 Z " /><path fill="rgb(106,70,70)" stroke="rgb(106,70,70)" stroke-width="1" opacity="0.03137254901960784" d="M 46.5 16 L 42.5 21 L 46.5 16 Z " /><path fill="rgb(111,78,62)" stroke="rgb(111,78,62)" stroke-width="1" opacity="0.7843137254901961" d="M 2 7 Q 4.7 5.9 4 8.5 L 7.5 13 L 10 13.5 L 7.5 20 Q 0.9 16.8 2 7 Z " /><path fill="rgb(111,78,62)" stroke="rgb(111,78,62)" stroke-width="1" opacity="0.7843137254901961" d="M 46 7 Q 50 5.6 48 12.5 L 42.5 20 L 40 13.5 L 45 10.5 L 46 7 Z " /><path fill="rgb(111,78,62)" stroke="rgb(111,78,62)" stroke-width="1" opacity="0.7843137254901961" d="M 27.5 34 L 30 34.5 L 27.5 35 L 27.5 34 Z " /><path fill="rgb(123,178,65)" stroke="rgb(123,178,65)" stroke-width="1" opacity="0.5215686274509804" d="M 20.5 5 L 24 5.5 L 20.5 6 L 20.5 5 Z " /><path fill="rgb(123,178,65)" stroke="rgb(123,178,65)" stroke-width="1" opacity="0.5215686274509804" d="M 26.5 5 L 30 5.5 L 26.5 6 L 26.5 5 Z " /><path fill="rgb(123,178,65)" stroke="rgb(123,178,65)" stroke-width="1" opacity="0.5215686274509804" d="M 17.5 6 L 19 6.5 L 10.5 13 L 15.5 7 L 17.5 6 Z " /><path fill="rgb(123,178,65)" stroke="rgb(123,178,65)" stroke-width="1" opacity="0.5215686274509804" d="M 31.5 6 Q 37.6 7.4 40 12.5 L 34.5 8 Q 30.7 7.8 31.5 6 Z " /><path fill="rgb(123,178,65)" stroke="rgb(123,178,65)" stroke-width="1" opacity="0.5215686274509804" d="M 7.5 24 L 8 30.5 L 7 30.5 L 7.5 24 Z " /><path fill="rgb(123,178,65)" stroke="rgb(123,178,65)" stroke-width="1" opacity="0.5215686274509804" d="M 42.5 24 L 43 30.5 L 42 30.5 L 42.5 24 Z " /><path fill="rgb(123,178,65)" stroke="rgb(123,178,65)" stroke-width="1" opacity="0.5215686274509804" d="M 6.5 33 L 7 36.5 L 6 36.5 L 6.5 33 Z " /><path fill="rgb(123,178,65)" stroke="rgb(123,178,65)" stroke-width="1" opacity="0.5215686274509804" d="M 43.5 33 L 44 36.5 L 43 36.5 L 43.5 33 Z " /><path fill="rgb(123,178,65)" stroke="rgb(123,178,65)" stroke-width="1" opacity="0.5215686274509804" d="M 7.5 38 L 11 42.5 L 7 39.5 L 7.5 38 Z " /><path fill="rgb(123,178,65)" stroke="rgb(123,178,65)" stroke-width="1" opacity="0.5215686274509804" d="M 42.5 38 L 43 39.5 L 38.5 44 L 12.5 44 L 12.5 43 L 38.5 43 L 42 39.5 L 42.5 38 Z " /><path fill="rgb(0,0,0)" stroke="rgb(0,0,0)" stroke-width="1" opacity="0" d="M 0 0 L 50 0 L 50 50 L 0 50 L 0 0 Z M 2 5 Q 0 18 8 22 Q 6 25 7 33 L 6 34 L 7 40 L 12 44 L 39 44 L 44 37 L 43 24 L 42 23 L 48 15 L 48 6 L 46 5 L 45 10 L 41 13 Q 37 7 30 5 Q 14 4 10 13 L 8 12 L 4 8 Q 5 4 2 5 Z " /><path fill="rgb(124,178,65)" stroke="rgb(124,178,65)" stroke-width="1" opacity="0.996078431372549" d="M 19.5 9 L 21 11.5 L 19 10.5 L 19.5 9 Z " /><path fill="rgb(124,178,65)" stroke="rgb(124,178,65)" stroke-width="1" opacity="0.996078431372549" d="M 13.5 10 L 11.5 13 L 13.5 10 Z " /><path fill="rgb(124,178,65)" stroke="rgb(124,178,65)" stroke-width="1" opacity="0.996078431372549" d="M 36.5 10 L 37.5 12 L 36.5 10 Z " /><path fill="rgb(124,178,65)" stroke="rgb(124,178,65)" stroke-width="1" opacity="0.996078431372549" d="M 12.5 17 L 13.5 19 L 12.5 17 Z " /><path fill="rgb(124,178,65)" stroke="rgb(124,178,65)" stroke-width="1" opacity="0.996078431372549" d="M 13.5 23 L 14.5 25 L 13.5 23 Z " /><path fill="rgb(124,178,65)" stroke="rgb(124,178,65)" stroke-width="1" opacity="0.996078431372549" d="M 36.5 23 L 35.5 25 L 36.5 23 Z " /><path fill="rgb(124,178,65)" stroke="rgb(124,178,65)" stroke-width="1" opacity="0.996078431372549" d="M 12.5 26 L 13 27.5 L 11 28.5 L 12.5 26 Z " /><path fill="rgb(124,178,65)" stroke="rgb(124,178,65)" stroke-width="1" opacity="0.996078431372549" d="M 38.5 28 L 38.5 31 Q 35.5 29.5 38.5 28 Z " /><path fill="rgb(124,178,65)" stroke="rgb(124,178,65)" stroke-width="1" opacity="0.996078431372549" d="M 15.5 30 L 14.5 32 L 15.5 30 Z " /><path fill="rgb(124,178,65)" stroke="rgb(124,178,65)" stroke-width="1" opacity="0.996078431372549" d="M 34.5 30 L 36.5 33 L 34.5 30 Z " /><path fill="rgb(124,178,65)" stroke="rgb(124,178,65)" stroke-width="1" opacity="0.996078431372549" d="M 17.5 40 L 16.5 42 L 17.5 40 Z " /><path fill="rgb(124,178,65)" stroke="rgb(124,178,65)" stroke-width="1" opacity="0.996078431372549" d="M 32.5 40 L 33.5 42 L 32.5 40 Z " /><path fill="rgb(230,168,4)" stroke="rgb(230,168,4)" stroke-width="1" opacity="1" d="M 14 17 Q 17.3 15.7 16 20.5 L 19.5 22 L 22.5 20 L 22 21.5 Q 22.8 23.8 20.5 23 L 16.5 24 Q 12.8 22.5 14 17 Z " /><path fill="rgb(230,168,4)" stroke="rgb(230,168,4)" stroke-width="1" opacity="1" d="M 34 17 Q 37.7 15.7 36 21.5 Q 35.3 24.8 30.5 24 L 28 23 L 27 20.5 L 28.5 20 L 32.5 22 Q 35 20.8 34 17 Z " /><path fill="rgb(230,168,4)" stroke="rgb(230,168,4)" stroke-width="1" opacity="1" d="M 19.5 35 L 30.5 35 L 32 36.5 L 31.5 38 L 24.5 36 L 18.5 38 L 18 36.5 L 19.5 35 Z " /><path fill="rgb(7,10,1)" stroke="rgb(7,10,1)" stroke-width="1" opacity="1" d="M 16 18 L 20 19.5 L 18.5 22 L 16 21 L 16 18 Z " /><path fill="rgb(7,10,1)" stroke="rgb(7,10,1)" stroke-width="1" opacity="1" d="M 31.5 18 Q 35.7 16.9 34 21 L 31.5 22 L 30 19.5 L 31.5 18 Z " /><path fill="rgb(124,179,66)" stroke="rgb(124,179,66)" stroke-width="1" opacity="1" d="M 20.5 6 L 29.5 6 L 36 9 L 37.5 12 Q 39.8 11.3 39 13.5 L 41 16.5 Q 39.7 21.3 42 22.5 L 42 24.5 L 43 36.5 L 39.5 42 L 37.5 43 L 12.5 43 L 9 40.5 Q 6.3 38.2 7 32.5 L 9 22.5 L 9 20.5 L 9 16.5 L 14 9 L 20.5 6 Z M 21 8 L 19 10 L 21 12 L 23 11 Q 24 7 21 8 Z M 27 10 L 27 13 L 30 12 L 27 10 Z M 14 12 L 12 16 L 12 18 L 13 24 Q 15 26 21 25 Q 25 23 22 22 Q 25 21 24 17 Q 20 13 14 12 Z M 35 12 L 28 15 Q 25 16 26 20 Q 29 21 27 23 Q 29 27 36 25 L 38 22 L 37 18 L 38 14 L 35 12 Z M 10 26 L 10 28 Q 12 31 13 28 Q 14 25 10 26 Z M 15 26 Q 14 29 18 28 Q 19 25 15 26 Z M 35 26 Q 33 30 37 29 Q 38 31 39 29 Q 40 24 35 26 Z M 21 28 Q 20 31 16 30 L 12 35 Q 11 38 14 39 L 22 37 L 29 37 L 36 39 L 38 38 L 37 33 L 30 28 L 21 28 Z M 38 30 L 38 32 Q 40 35 41 32 Q 42 28 38 30 Z M 9 31 L 9 34 L 12 33 Q 13 29 9 31 Z M 23 38 L 18 40 L 17 42 L 21 41 L 30 41 L 31 42 L 34 42 Q 31 37 23 38 Z " /><path fill="rgb(30,94,31)" stroke="rgb(30,94,31)" stroke-width="1" opacity="1" d="M 13 13 L 16.5 13 L 24 17.5 L 20.5 20 L 13 15.5 L 13 13 Z " /><path fill="rgb(30,94,31)" stroke="rgb(30,94,31)" stroke-width="1" opacity="1" d="M 33.5 13 Q 38.3 11.3 37 15.5 L 29.5 20 L 26 17.5 L 33.5 13 Z " /><path fill="rgb(30,94,31)" stroke="rgb(30,94,31)" stroke-width="1" opacity="1" d="M 24.5 28 L 30 29 L 31.5 33 L 33.5 31 L 37 34.5 L 36.5 38 L 34.5 34 Q 32.3 33.3 33 35.5 L 31.5 35 L 26.5 34 L 24.5 35 L 20.5 34 L 17.5 36 L 17 34 L 14 35.5 L 13.5 38 L 13 34.5 L 16.5 31 Q 18.3 34.8 20 31.5 Q 18.7 27.3 23.5 29 L 24.5 28 Z " /><path fill="rgb(205,209,201)" stroke="rgb(205,209,201)" stroke-width="1" opacity="1" d="M 19.5 29 L 20 32 L 17 30.5 L 19.5 29 Z " /><path fill="rgb(205,209,201)" stroke="rgb(205,209,201)" stroke-width="1" opacity="1" d="M 30.5 29 L 33 30.5 L 30 32 L 30.5 29 Z " /><path fill="rgb(205,209,201)" stroke="rgb(205,209,201)" stroke-width="1" opacity="1" d="M 15 35 Q 17.7 33.9 17 36.5 L 17.5 38 Q 13.3 39.1 15 35 Z " /><path fill="rgb(205,209,201)" stroke="rgb(205,209,201)" stroke-width="1" opacity="1" d="M 33 35 Q 36.3 33.9 35 38 L 32 37.5 L 33 35 Z " /><path fill="rgb(113,165,60)" stroke="rgb(113,165,60)" stroke-width="1" opacity="1" d="M 20 8 L 23 9.5 L 21.5 12 L 20 8 Z " /><path fill="rgb(113,165,60)" stroke="rgb(113,165,60)" stroke-width="1" opacity="1" d="M 28.5 10 L 29 12.5 L 27 11.5 L 28.5 10 Z " /><path fill="rgb(113,165,60)" stroke="rgb(113,165,60)" stroke-width="1" opacity="1" d="M 13.5 12 L 12.5 14 L 13.5 12 Z " /><path fill="rgb(113,165,60)" stroke="rgb(113,165,60)" stroke-width="1" opacity="1" d="M 36.5 12 L 37.5 14 L 36.5 12 Z " /><path fill="rgb(113,165,60)" stroke="rgb(113,165,60)" stroke-width="1" opacity="1" d="M 10.5 13 L 10 14.5 L 9.5 16 L 9 14.5 L 10.5 13 Z " /><path fill="rgb(113,165,60)" stroke="rgb(113,165,60)" stroke-width="1" opacity="1" d="M 8.5 17 L 9 20.5 L 8 20.5 L 8.5 17 Z " /><path fill="rgb(113,165,60)" stroke="rgb(113,165,60)" stroke-width="1" opacity="1" d="M 41.5 17 L 42 20.5 L 41 20.5 L 41.5 17 Z " /><path fill="rgb(113,165,60)" stroke="rgb(113,165,60)" stroke-width="1" opacity="1" d="M 12.5 18 L 14 20.5 L 12 21.5 L 12.5 18 Z " /><path fill="rgb(113,165,60)" stroke="rgb(113,165,60)" stroke-width="1" opacity="1" d="M 37.5 18 L 38 21.5 L 36 20.5 L 37.5 18 Z " /><path fill="rgb(113,165,60)" stroke="rgb(113,165,60)" stroke-width="1" opacity="1" d="M 28.5 23 L 29.5 25 L 28.5 23 Z " /><path fill="rgb(113,165,60)" stroke="rgb(113,165,60)" stroke-width="1" opacity="1" d="M 10 26 Q 13 25 12 28 Q 9 29 10 26 Z " /><path fill="rgb(113,165,60)" stroke="rgb(113,165,60)" stroke-width="1" opacity="1" d="M 16 26 Q 19 25 18 28 Q 15 29 16 26 Z " /><path fill="rgb(113,165,60)" stroke="rgb(113,165,60)" stroke-width="1" opacity="1" d="M 36.5 26 L 39 27.5 L 36.5 29 Q 33.5 27.5 36.5 26 Z " /><path fill="rgb(113,165,60)" stroke="rgb(113,165,60)" stroke-width="1" opacity="1" d="M 39.5 30 L 40.5 32 L 38 31.5 L 39.5 30 Z " /><path fill="rgb(113,165,60)" stroke="rgb(113,165,60)" stroke-width="1" opacity="1" d="M 10.5 31 L 11.5 33 L 9 32.5 L 10.5 31 Z " /><path fill="rgb(113,165,60)" stroke="rgb(113,165,60)" stroke-width="1" opacity="1" d="M 23.5 38 L 27 38.5 L 23.5 39 L 23.5 38 Z " /><path fill="rgb(91,144,53)" stroke="rgb(91,144,53)" stroke-width="1" opacity="1" d="M 13.5 21 L 14 23 L 20 24.5 L 16.5 25 L 13 22.5 L 13.5 21 Z " /><path fill="rgb(91,144,53)" stroke="rgb(91,144,53)" stroke-width="1" opacity="1" d="M 36.5 21 L 37 22.5 Q 35.6 25.6 30.5 25 L 30.5 24 L 36 23 L 36.5 21 Z " /><path fill="rgb(91,144,53)" stroke="rgb(91,144,53)" stroke-width="1" opacity="1" d="M 16.5 30 L 17.5 32 L 16.5 30 Z " /><path fill="rgb(91,144,53)" stroke="rgb(91,144,53)" stroke-width="1" opacity="1" d="M 33.5 30 L 32.5 32 L 33.5 30 Z " /><path fill="rgb(91,144,53)" stroke="rgb(91,144,53)" stroke-width="1" opacity="1" d="M 12.5 35 L 13.5 38 L 14.5 35 L 15 39 L 12 37.5 L 12.5 35 Z " /><path fill="rgb(91,144,53)" stroke="rgb(91,144,53)" stroke-width="1" opacity="1" d="M 35.5 35 L 36.5 38 L 37.5 35 L 38 37.5 L 35 39 L 35.5 35 Z " /><path fill="rgb(91,144,53)" stroke="rgb(91,144,53)" stroke-width="1" opacity="1" d="M 20.5 39 Q 28.7 37.3 32 40.5 L 18.5 41 L 18.5 40 L 20.5 39 Z " /><path fill="rgb(78,125,43)" stroke="rgb(78,125,43)" stroke-width="1" opacity="1" d="M 20.5 20 L 19.5 22 L 20.5 20 Z " /><path fill="rgb(78,125,43)" stroke="rgb(78,125,43)" stroke-width="1" opacity="1" d="M 29.5 20 L 30.5 22 L 29.5 20 Z " /><path fill="rgb(78,125,43)" stroke="rgb(78,125,43)" stroke-width="1" opacity="1" d="M 15.5 31 L 13.5 34 L 15.5 31 Z " /><path fill="rgb(78,125,43)" stroke="rgb(78,125,43)" stroke-width="1" opacity="1" d="M 34.5 31 L 36.5 34 L 34.5 31 Z " /></svg>