<svg width="50" height="50" version="1.1" xmlns="http://www.w3.org/2000/svg" desc="Created with imagetracer.js version 1.2.6" ><path fill="rgb(6,5,4)" stroke="rgb(6,5,4)" stroke-width="1" opacity="0.9607843137254902" d="M 24.5 29 L 30 32.5 L 30 36 Q 27 35 28 38 L 22 38 Q 23 35 20 36 L 20 32.5 L 24.5 29 Z M 22 32 L 22 35 L 24 34 Q 25 31 22 32 Z M 26 32 L 26 34 L 28 35 Q 29 31 26 32 Z M 24 35 Q 23 38 26 37 Q 27 34 24 35 Z " /><path fill="rgb(226,237,147)" stroke="rgb(226,237,147)" stroke-width="1" opacity="0.1450980392156863" d="M 18.5 7 L 21 11.5 L 20 11.5 L 18.5 7 Z " /><path fill="rgb(226,237,147)" stroke="rgb(226,237,147)" stroke-width="1" opacity="0.1450980392156863" d="M 31.5 7 L 32 8.5 L 29.5 12 L 29 10.5 L 31.5 7 Z " /><path fill="rgb(226,237,147)" stroke="rgb(226,237,147)" stroke-width="1" opacity="0.1450980392156863" d="M 18.5 17 L 13.5 23 L 18.5 17 Z " /><path fill="rgb(226,237,147)" stroke="rgb(226,237,147)" stroke-width="1" opacity="0.1450980392156863" d="M 31.5 17 L 36.5 23 L 31.5 17 Z " /><path fill="rgb(226,237,147)" stroke="rgb(226,237,147)" stroke-width="1" opacity="0.1450980392156863" d="M 12.5 24 L 11.5 26 L 12.5 24 Z " /><path fill="rgb(226,237,147)" stroke="rgb(226,237,147)" stroke-width="1" opacity="0.1450980392156863" d="M 37.5 24 L 38.5 26 L 37.5 24 Z " /><path fill="rgb(226,237,147)" stroke="rgb(226,237,147)" stroke-width="1" opacity="0.1450980392156863" d="M 12.5 40 L 13.5 42 L 12.5 40 Z " /><path fill="rgb(226,237,147)" stroke="rgb(226,237,147)" stroke-width="1" opacity="0.1450980392156863" d="M 37.5 40 L 36.5 42 L 37.5 40 Z " /><path fill="rgb(226,237,147)" stroke="rgb(226,237,147)" stroke-width="1" opacity="0.1450980392156863" d="M 15.5 43 L 16.5 45 L 15.5 43 Z " /><path fill="rgb(226,237,147)" stroke="rgb(226,237,147)" stroke-width="1" opacity="0.1450980392156863" d="M 34.5 43 L 32.5 46 L 31 45.5 L 34.5 43 Z " /><path fill="rgb(0,0,0)" stroke="rgb(0,0,0)" stroke-width="1" opacity="0" d="M 0 0 L 50 0 L 50 50 L 0 50 L 0 0 Z M 21 3 L 21 5 Q 22 9 18 7 L 20 11 L 19 17 Q 13 21 10 29 Q 9 37 12 41 L 21 47 L 33 46 L 40 37 L 39 26 L 30 15 Q 29 10 32 9 Q 33 6 29 7 L 30 4 L 21 3 Z " /><path fill="rgb(214,222,120)" stroke="rgb(214,222,120)" stroke-width="1" opacity="0.9882352941176471" d="M 21.5 9 L 29 9.5 L 21.5 10 L 21.5 9 Z " /><path fill="rgb(214,222,120)" stroke="rgb(214,222,120)" stroke-width="1" opacity="0.9882352941176471" d="M 12.5 29 L 13 34.5 L 12 34.5 L 12.5 29 Z " /><path fill="rgb(214,222,120)" stroke="rgb(214,222,120)" stroke-width="1" opacity="0.9882352941176471" d="M 37.5 29 L 38 34.5 L 37 34.5 L 37.5 29 Z " /><path fill="rgb(214,222,120)" stroke="rgb(214,222,120)" stroke-width="1" opacity="0.9882352941176471" d="M 14.5 39 L 17.5 43 L 14.5 39 Z " /><path fill="rgb(214,222,120)" stroke="rgb(214,222,120)" stroke-width="1" opacity="0.9882352941176471" d="M 35.5 39 L 32.5 43 L 35.5 39 Z " /><path fill="rgb(230,237,157)" stroke="rgb(230,237,157)" stroke-width="1" opacity="0.9882352941176471" d="M 21 10 L 29 10 L 29 13.5 Q 31.8 21.3 38 25.5 L 39 36.5 L 32.5 45 L 23.5 47 Q 16.6 45.4 13 40.5 Q 9.7 36.8 11 28.5 L 12 25.5 L 20 16.5 L 21 10 Z M 23 14 Q 22 18 25 17 Q 26 13 23 14 Z M 27 19 Q 26 22 29 21 Q 30 18 27 19 Z M 22 22 Q 21 25 24 24 Q 25 21 22 22 Z M 15 26 L 12 30 Q 11 36 14 40 L 22 45 Q 29 46 33 43 Q 37 40 38 35 Q 39 28 36 26 L 34 27 L 32 26 L 28 27 L 24 26 L 22 26 L 18 27 L 15 26 Z " /><path fill="rgb(228,236,151)" stroke="rgb(228,236,151)" stroke-width="1" opacity="0.5450980392156862" d="M 17.5 19 L 13.5 24 L 17.5 19 Z " /><path fill="rgb(228,236,151)" stroke="rgb(228,236,151)" stroke-width="1" opacity="0.5450980392156862" d="M 32.5 19 L 36.5 24 L 32.5 19 Z " /><path fill="rgb(228,236,151)" stroke="rgb(228,236,151)" stroke-width="1" opacity="0.5450980392156862" d="M 10.5 30 L 11 34.5 L 10 34.5 L 10.5 30 Z " /><path fill="rgb(228,236,151)" stroke="rgb(228,236,151)" stroke-width="1" opacity="0.5450980392156862" d="M 39.5 30 L 40 34.5 L 39 34.5 L 39.5 30 Z " /><path fill="rgb(112,98,57)" stroke="rgb(112,98,57)" stroke-width="1" opacity="0.9529411764705882" d="M 20.5 3 L 30 3.5 L 29 7 L 21 7 L 21 4.5 L 20.5 3 Z " /><path fill="rgb(112,98,57)" stroke="rgb(112,98,57)" stroke-width="1" opacity="0.9529411764705882" d="M 21.5 30 L 20.5 32 L 21.5 30 Z " /><path fill="rgb(112,98,57)" stroke="rgb(112,98,57)" stroke-width="1" opacity="0.9529411764705882" d="M 28.5 30 L 29.5 32 L 28.5 30 Z " /><path fill="rgb(112,98,57)" stroke="rgb(112,98,57)" stroke-width="1" opacity="0.9529411764705882" d="M 22.5 38 L 28 38.5 L 22.5 39 L 22.5 38 Z " /><path fill="rgb(178,183,48)" stroke="rgb(178,183,48)" stroke-width="1" opacity="0.984313725490196" d="M 19 7 Q 23.1 5.7 22 9 Q 17.9 10.3 19 7 Z " /><path fill="rgb(178,183,48)" stroke="rgb(178,183,48)" stroke-width="1" opacity="0.984313725490196" d="M 28 7 Q 32.1 5.7 31 9 Q 26.9 10.3 28 7 Z " /><path fill="rgb(178,183,48)" stroke="rgb(178,183,48)" stroke-width="1" opacity="0.984313725490196" d="M 27.5 19 L 28.5 21 L 27.5 19 Z " /><path fill="rgb(178,183,48)" stroke="rgb(178,183,48)" stroke-width="1" opacity="0.984313725490196" d="M 22 22 Q 25 21 24 24 Q 21 25 22 22 Z " /><path fill="rgb(178,183,48)" stroke="rgb(178,183,48)" stroke-width="1" opacity="0.984313725490196" d="M 13.5 28 L 15.5 31 L 16.5 29 L 17 30.5 Q 15.5 33.5 14 30.5 L 13.5 28 Z " /><path fill="rgb(178,183,48)" stroke="rgb(178,183,48)" stroke-width="1" opacity="0.984313725490196" d="M 33.5 31 L 34.5 33 L 35.5 31 L 36 32.5 Q 34.5 35.5 33 32.5 L 33.5 31 Z " /><path fill="rgb(178,183,48)" stroke="rgb(178,183,48)" stroke-width="1" opacity="0.984313725490196" d="M 16.5 35 Q 19.5 34.2 18 38 L 15 36.5 L 16.5 35 Z " /><path fill="rgb(178,183,48)" stroke="rgb(178,183,48)" stroke-width="1" opacity="0.984313725490196" d="M 31.5 37 L 34 38.5 L 31.5 40 L 31.5 39 L 33 38.5 L 31.5 37 Z " /><path fill="rgb(178,183,48)" stroke="rgb(178,183,48)" stroke-width="1" opacity="0.984313725490196" d="M 14.5 38 L 15.5 40 L 14.5 38 Z " /><path fill="rgb(178,183,48)" stroke="rgb(178,183,48)" stroke-width="1" opacity="0.984313725490196" d="M 22.5 40 L 24 40.5 L 22 41.5 L 24 42.5 L 22.5 43 Q 19.5 41.5 22.5 40 Z " /><path fill="rgb(178,183,48)" stroke="rgb(178,183,48)" stroke-width="1" opacity="0.984313725490196" d="M 23.5 44 L 27 44.5 L 23.5 45 L 23.5 44 Z " /><path fill="rgb(175,180,43)" stroke="rgb(175,180,43)" stroke-width="1" opacity="1" d="M 22 7 L 28 7 L 28 9 L 22 9 L 22 7 Z " /><path fill="rgb(175,180,43)" stroke="rgb(175,180,43)" stroke-width="1" opacity="1" d="M 14 27 L 35.5 27 L 36 28.5 Q 38.5 30 37 35.5 L 32.5 42 Q 29.2 45.2 21.5 44 L 16 40.5 Q 11.9 37.6 13 29.5 L 14 27 Z M 14 29 L 14 31 Q 16 34 17 31 Q 18 27 14 29 Z M 24 29 L 20 32 Q 19 37 22 38 L 23 39 L 28 39 L 30 36 L 30 32 Q 29 28 24 29 Z M 33 31 L 33 33 Q 35 36 36 33 Q 37 29 33 31 Z M 17 35 L 15 37 L 18 38 Q 19 34 17 35 Z M 31 37 L 31 40 L 34 39 L 31 37 Z M 23 40 L 21 42 L 24 43 Q 25 39 23 40 Z " /></svg>