<svg width="50" height="50" version="1.1" xmlns="http://www.w3.org/2000/svg" desc="Created with imagetracer.js version 1.2.6" ><path fill="rgb(4,153,223)" stroke="rgb(4,153,223)" stroke-width="1" opacity="0.5607843137254902" d="M 19.5 3 L 23 3.5 Q 12.2 4.7 8 12.5 L 5.5 22 L 5 17.5 L 10 8 L 19.5 3 Z " /><path fill="rgb(4,153,223)" stroke="rgb(4,153,223)" stroke-width="1" opacity="0.5607843137254902" d="M 27.5 3 L 33.5 4 L 40 8 L 44 14.5 L 45 21.5 L 44 21.5 Q 43.6 9.9 35.5 6 L 27.5 4 L 27.5 3 Z " /><path fill="rgb(4,153,223)" stroke="rgb(4,153,223)" stroke-width="1" opacity="0.5607843137254902" d="M 5.5 23 L 7 30.5 L 6 30.5 L 5.5 23 Z " /><path fill="rgb(4,153,223)" stroke="rgb(4,153,223)" stroke-width="1" opacity="0.5607843137254902" d="M 44.5 23 L 45 28.5 L 40.5 36 L 41 34.5 Q 44.6 30.6 44.5 23 Z " /><path fill="rgb(4,153,223)" stroke="rgb(4,153,223)" stroke-width="1" opacity="0.5607843137254902" d="M 7.5 32 L 10 35.5 L 8 34.5 L 7.5 32 Z " /><path fill="rgb(160,221,250)" stroke="rgb(160,221,250)" stroke-width="1" opacity="1" d="M 21 10 L 23 10.5 L 21 11.5 L 21 10 Z " /><path fill="rgb(160,221,250)" stroke="rgb(160,221,250)" stroke-width="1" opacity="1" d="M 25.5 11 L 30 11.5 L 25.5 12 L 25.5 11 Z " /><path fill="rgb(160,221,250)" stroke="rgb(160,221,250)" stroke-width="1" opacity="1" d="M 21.5 13 L 20.5 15 L 21.5 13 Z " /><path fill="rgb(160,221,250)" stroke="rgb(160,221,250)" stroke-width="1" opacity="1" d="M 27.5 16 L 30 16.5 L 27.5 17 L 27.5 16 Z " /><path fill="rgb(160,221,250)" stroke="rgb(160,221,250)" stroke-width="1" opacity="1" d="M 23 17 L 25 17.5 L 23 18.5 L 23 17 Z " /><path fill="rgb(160,221,250)" stroke="rgb(160,221,250)" stroke-width="1" opacity="1" d="M 13.5 18 L 14 21.5 L 13 21.5 L 13.5 18 Z " /><path fill="rgb(160,221,250)" stroke="rgb(160,221,250)" stroke-width="1" opacity="1" d="M 33.5 18 L 34.5 20 L 33.5 18 Z " /><path fill="rgb(160,221,250)" stroke="rgb(160,221,250)" stroke-width="1" opacity="1" d="M 36.5 19 Q 38.8 18.3 38 20.5 L 36.5 19 Z " /><path fill="rgb(160,221,250)" stroke="rgb(160,221,250)" stroke-width="1" opacity="1" d="M 29.5 21 Q 31.8 20.3 31 22.5 L 29.5 21 Z " /><path fill="rgb(160,221,250)" stroke="rgb(160,221,250)" stroke-width="1" opacity="1" d="M 36.5 23 L 37 27.5 L 36 27.5 L 36.5 23 Z " /><path fill="rgb(160,221,250)" stroke="rgb(160,221,250)" stroke-width="1" opacity="1" d="M 12.5 25 L 13.5 27 Q 10.7 27.7 12.5 25 Z " /><path fill="rgb(160,221,250)" stroke="rgb(160,221,250)" stroke-width="1" opacity="1" d="M 26.5 27 L 27 28.5 L 24 30.5 L 26.5 27 Z " /><path fill="rgb(160,221,250)" stroke="rgb(160,221,250)" stroke-width="1" opacity="1" d="M 20.5 34 L 24 34.5 L 20.5 35 L 20.5 34 Z " /><path fill="rgb(160,221,250)" stroke="rgb(160,221,250)" stroke-width="1" opacity="1" d="M 28.5 34 L 27.5 36 L 28.5 34 Z " /><path fill="rgb(118,207,248)" stroke="rgb(118,207,248)" stroke-width="1" opacity="1" d="M 15.5 9 L 12.5 13 L 15.5 9 Z " /><path fill="rgb(118,207,248)" stroke="rgb(118,207,248)" stroke-width="1" opacity="1" d="M 35.5 10 L 37.5 13 L 35.5 10 Z " /><path fill="rgb(118,207,248)" stroke="rgb(118,207,248)" stroke-width="1" opacity="1" d="M 12.5 33 L 14.5 36 L 12.5 33 Z " /><path fill="rgb(118,207,248)" stroke="rgb(118,207,248)" stroke-width="1" opacity="1" d="M 37.5 33 L 35.5 36 L 37.5 33 Z " /><path fill="rgb(0,0,0)" stroke="rgb(0,0,0)" stroke-width="1" opacity="0" d="M 0 0 L 50 0 L 50 50 L 0 50 L 0 0 Z M 20 3 L 10 8 L 5 18 L 5 29 L 10 37 L 9 40 L 6 41 L 6 47 L 7 47 L 44 47 L 44 42 L 43 41 L 40 37 L 45 29 L 45 18 L 40 8 L 31 3 L 20 3 Z " /><path fill="rgb(129,212,250)" stroke="rgb(129,212,250)" stroke-width="1" opacity="1" d="M 20.5 7 L 29.5 7 L 39 14.5 Q 42.5 18.5 41 27.5 L 33.5 37 Q 29.5 40 21.5 39 Q 14.3 37.2 11 31.5 Q 7.5 27.5 9 18.5 L 16.5 9 L 20.5 7 Z M 21 10 L 17 12 L 13 18 Q 12 24 15 27 L 21 30 L 24 29 L 25 30 L 23 31 L 18 30 L 14 26 L 12 25 L 13 30 L 21 35 Q 26 36 29 33 L 32 28 L 31 24 L 33 25 L 32 31 L 28 34 L 27 36 L 32 35 L 37 29 L 36 21 L 31 16 L 26 17 L 27 15 Q 33 14 35 17 L 37 22 L 38 22 L 36 15 L 31 11 L 23 12 L 18 19 L 19 22 L 19 23 L 17 21 L 19 13 L 24 11 L 21 10 Z " /><path fill="rgb(209,236,252)" stroke="rgb(209,236,252)" stroke-width="1" opacity="1" d="M 19 11 L 21 11.5 L 17.5 15 L 15 14.5 Q 17 10.8 19 12.5 L 19 11 Z " /><path fill="rgb(209,236,252)" stroke="rgb(209,236,252)" stroke-width="1" opacity="1" d="M 33.5 13 Q 37.2 15 35.5 17 Q 37.8 16.3 37 18.5 L 33 15.5 L 33.5 13 Z " /><path fill="rgb(209,236,252)" stroke="rgb(209,236,252)" stroke-width="1" opacity="1" d="M 26.5 14 L 31 14.5 L 26.5 15 L 26.5 14 Z " /><path fill="rgb(209,236,252)" stroke="rgb(209,236,252)" stroke-width="1" opacity="1" d="M 24.5 15 L 23.5 17 L 24.5 15 Z " /><path fill="rgb(209,236,252)" stroke="rgb(209,236,252)" stroke-width="1" opacity="1" d="M 16.5 17 L 17 20.5 L 16 20.5 L 16.5 17 Z " /><path fill="rgb(209,236,252)" stroke="rgb(209,236,252)" stroke-width="1" opacity="1" d="M 31.5 21 L 32.5 23 L 31.5 21 Z " /><path fill="rgb(209,236,252)" stroke="rgb(209,236,252)" stroke-width="1" opacity="1" d="M 33.5 25 L 34 28.5 L 33 28.5 L 33.5 25 Z " /><path fill="rgb(209,236,252)" stroke="rgb(209,236,252)" stroke-width="1" opacity="1" d="M 13.5 27 L 16 29.5 L 15.5 32 L 14.5 29 Q 11.7 29.7 13.5 27 Z " /><path fill="rgb(209,236,252)" stroke="rgb(209,236,252)" stroke-width="1" opacity="1" d="M 20.5 31 L 23 31.5 L 20.5 32 L 20.5 31 Z " /><path fill="rgb(209,236,252)" stroke="rgb(209,236,252)" stroke-width="1" opacity="1" d="M 34.5 31 L 33.5 33 L 34.5 31 Z " /><path fill="rgb(209,236,252)" stroke="rgb(209,236,252)" stroke-width="1" opacity="1" d="M 31.5 32 L 31 33.5 Q 31.8 35.8 29.5 35 L 31.5 32 Z " /><path fill="rgb(226,241,252)" stroke="rgb(226,241,252)" stroke-width="1" opacity="1" d="M 18.5 12 L 17 14.5 L 16 20.5 L 19.5 25 L 21 24.5 Q 18.2 22.8 19 17.5 L 22.5 13 L 30.5 12 L 36 16.5 L 33.5 15 L 26.5 14 L 23 16.5 L 23.5 19 Q 25.2 16.2 30.5 17 L 34 19.5 Q 37.2 21.8 36 28.5 L 31.5 34 L 32 32.5 L 34 25.5 L 31.5 21 L 29 21.5 Q 31.6 22.9 31 27.5 L 29 32 Q 26.4 34.7 19.5 34 L 14 29.5 L 15.5 30 L 22.5 32 L 27 28.5 L 26.5 27 Q 25.1 29.6 20.5 29 L 16 27 Q 13.3 24.4 14 17.5 L 18.5 12 Z " /><path fill="rgb(78,189,241)" stroke="rgb(78,189,241)" stroke-width="1" opacity="1" d="M 21.5 6 L 29 6.5 L 21.5 7 L 21.5 6 Z " /><path fill="rgb(78,189,241)" stroke="rgb(78,189,241)" stroke-width="1" opacity="1" d="M 33.5 8 L 34.5 10 L 33.5 8 Z " /><path fill="rgb(78,189,241)" stroke="rgb(78,189,241)" stroke-width="1" opacity="1" d="M 11.5 13 L 10.5 15 L 11.5 13 Z " /><path fill="rgb(78,189,241)" stroke="rgb(78,189,241)" stroke-width="1" opacity="1" d="M 38.5 13 L 39.5 15 L 38.5 13 Z " /><path fill="rgb(78,189,241)" stroke="rgb(78,189,241)" stroke-width="1" opacity="1" d="M 8.5 19 L 9 25.5 L 8 25.5 L 8.5 19 Z " /><path fill="rgb(78,189,241)" stroke="rgb(78,189,241)" stroke-width="1" opacity="1" d="M 41.5 20 L 42 25.5 L 41 25.5 L 41.5 20 Z " /><path fill="rgb(78,189,241)" stroke="rgb(78,189,241)" stroke-width="1" opacity="1" d="M 22.5 39 L 28 39.5 L 22.5 40 L 22.5 39 Z " /><path fill="rgb(135,214,250)" stroke="rgb(135,214,250)" stroke-width="1" opacity="1" d="M 16.5 12 L 15.5 14 L 16.5 12 Z " /><path fill="rgb(135,214,250)" stroke="rgb(135,214,250)" stroke-width="1" opacity="1" d="M 34.5 13 L 35.5 15 L 34.5 13 Z " /><path fill="rgb(135,214,250)" stroke="rgb(135,214,250)" stroke-width="1" opacity="1" d="M 18.5 14 L 19.5 16 L 18.5 14 Z " /><path fill="rgb(135,214,250)" stroke="rgb(135,214,250)" stroke-width="1" opacity="1" d="M 31.5 15 L 30.5 17 L 31.5 15 Z " /><path fill="rgb(135,214,250)" stroke="rgb(135,214,250)" stroke-width="1" opacity="1" d="M 33.5 16 L 32.5 18 L 33.5 16 Z " /><path fill="rgb(135,214,250)" stroke="rgb(135,214,250)" stroke-width="1" opacity="1" d="M 18.5 20 L 17.5 22 L 18.5 20 Z " /><path fill="rgb(135,214,250)" stroke="rgb(135,214,250)" stroke-width="1" opacity="1" d="M 12.5 24 L 13.5 26 L 12.5 24 Z " /><path fill="rgb(135,214,250)" stroke="rgb(135,214,250)" stroke-width="1" opacity="1" d="M 15.5 26 L 17 27.5 L 16.5 30 Q 12 28 15.5 26 Z " /><path fill="rgb(135,214,250)" stroke="rgb(135,214,250)" stroke-width="1" opacity="1" d="M 20.5 29 L 24 30.5 L 22.5 30 Q 19.5 30.5 20.5 29 Z " /><path fill="rgb(135,214,250)" stroke="rgb(135,214,250)" stroke-width="1" opacity="1" d="M 29.5 31 L 32 31.5 Q 30 36 28 32.5 L 29.5 31 Z " /><path fill="rgb(135,214,250)" stroke="rgb(135,214,250)" stroke-width="1" opacity="1" d="M 27.5 34 L 28.5 36 L 26 35.5 L 27.5 34 Z " /><path fill="rgb(5,156,229)" stroke="rgb(5,156,229)" stroke-width="1" opacity="0.996078431372549" d="M 15.5 8 L 11.5 13 L 15.5 8 Z " /><path fill="rgb(5,156,229)" stroke="rgb(5,156,229)" stroke-width="1" opacity="0.996078431372549" d="M 34.5 8 L 38.5 13 L 34.5 8 Z " /><path fill="rgb(5,156,229)" stroke="rgb(5,156,229)" stroke-width="1" opacity="0.996078431372549" d="M 11.5 33 L 14.5 37 L 11.5 33 Z " /><path fill="rgb(5,156,229)" stroke="rgb(5,156,229)" stroke-width="1" opacity="0.996078431372549" d="M 38.5 33 L 35.5 37 L 38.5 33 Z " /><path fill="rgb(5,156,229)" stroke="rgb(5,156,229)" stroke-width="1" opacity="0.996078431372549" d="M 13.5 38 L 14.5 40 L 13.5 38 Z " /><path fill="rgb(5,156,229)" stroke="rgb(5,156,229)" stroke-width="1" opacity="0.996078431372549" d="M 36.5 38 L 35.5 40 L 36.5 38 Z " /><path fill="rgb(5,156,229)" stroke="rgb(5,156,229)" stroke-width="1" opacity="0.996078431372549" d="M 22.5 42 L 28 42.5 L 22.5 43 L 22.5 42 Z " /><path fill="rgb(82,108,120)" stroke="rgb(82,108,120)" stroke-width="1" opacity="0.9215686274509803" d="M 10.5 36 L 11.5 38 L 10.5 36 Z " /><path fill="rgb(82,108,120)" stroke="rgb(82,108,120)" stroke-width="1" opacity="0.9215686274509803" d="M 39.5 36 L 38.5 38 L 39.5 36 Z " /><path fill="rgb(82,108,120)" stroke="rgb(82,108,120)" stroke-width="1" opacity="0.9215686274509803" d="M 6 41 L 12.5 41 Q 17.8 45.2 27.5 45 L 37.5 41 L 44 41 L 44 46.5 L 43.5 47 L 6 47 L 6 41 Z " /><path fill="rgb(3,155,229)" stroke="rgb(3,155,229)" stroke-width="1" opacity="1" d="M 23.5 3 Q 37 3.5 42 12.5 L 45 22.5 L 43 31.5 L 41 35 Q 38.3 33.9 39 36.5 Q 34.1 43.6 20.5 42 L 11 36.5 L 9 33.5 L 7 31.5 L 5 22.5 L 8 12.5 L 14.5 6 L 23.5 3 Z M 21 6 L 16 8 Q 10 12 8 19 Q 7 29 11 34 Q 15 38 22 40 L 30 40 L 36 37 L 42 28 Q 44 17 39 13 Q 35 4 21 6 Z " /><path fill="rgb(61,86,99)" stroke="rgb(61,86,99)" stroke-width="1" opacity="0.9529411764705882" d="M 9 37 L 20.5 43 L 29.5 43 L 41 37 L 42 40.5 L 27.5 45 L 22.5 45 L 8 40.5 L 9 37 Z " /></svg>