<svg width="50" height="50" version="1.1" xmlns="http://www.w3.org/2000/svg" desc="Created with imagetracer.js version 1.2.6" ><path fill="rgb(254,195,6)" stroke="rgb(254,195,6)" stroke-width="1" opacity="0.30196078431372547" d="M 11.5 0 L 14 0.5 L 11.5 1 L 11.5 0 Z " /><path fill="rgb(254,195,6)" stroke="rgb(254,195,6)" stroke-width="1" opacity="0.30196078431372547" d="M 20 0 L 26.5 2 Q 27.6 -0.8 31 0 L 32 3.5 L 30 4 Q 31.5 0.2 28.5 1 L 24.5 3 L 21 1 Q 22.5 4.8 19.5 4 L 20 2.5 L 20 0 Z " /><path fill="rgb(254,195,6)" stroke="rgb(254,195,6)" stroke-width="1" opacity="0.30196078431372547" d="M 37.5 0 L 40 0.5 L 35.5 2 L 35.5 1 L 37.5 0 Z " /><path fill="rgb(254,195,6)" stroke="rgb(254,195,6)" stroke-width="1" opacity="0.30196078431372547" d="M 12.5 2 L 15 6.5 L 14 6.5 L 12.5 2 Z " /><path fill="rgb(254,195,6)" stroke="rgb(254,195,6)" stroke-width="1" opacity="0.30196078431372547" d="M 38.5 2 L 38 3.5 Q 37.2 6.1 40.5 5 L 40.5 6 L 37.5 5 L 36.5 7 L 36 5.5 L 38.5 2 Z " /><path fill="rgb(254,195,6)" stroke="rgb(254,195,6)" stroke-width="1" opacity="0.30196078431372547" d="M 4.5 4 L 8 4.5 L 6 5.5 L 11 12 L 5 11.5 L 10 10.5 L 4.5 4 Z " /><path fill="rgb(254,195,6)" stroke="rgb(254,195,6)" stroke-width="1" opacity="0.30196078431372547" d="M 42.5 4 L 46 4.5 L 40.5 11 L 45 11.5 L 39 12 L 44 5.5 L 42.5 4 Z " /><path fill="rgb(254,195,6)" stroke="rgb(254,195,6)" stroke-width="1" opacity="0.30196078431372547" d="M 9.5 5 L 12 5.5 L 9.5 6 L 9.5 5 Z " /><path fill="rgb(254,195,6)" stroke="rgb(254,195,6)" stroke-width="1" opacity="0.30196078431372547" d="M 0.5 12 L 3 13.5 L 1.5 14 L 0.5 12 Z " /><path fill="rgb(254,195,6)" stroke="rgb(254,195,6)" stroke-width="1" opacity="0.30196078431372547" d="M 48.5 12 L 50 12.5 L 47.5 14 L 48.5 12 Z " /><path fill="rgb(254,195,6)" stroke="rgb(254,195,6)" stroke-width="1" opacity="0.30196078431372547" d="M 44.5 14 L 46 14.5 L 42.5 16 L 42.5 15 L 44.5 14 Z " /><path fill="rgb(254,195,6)" stroke="rgb(254,195,6)" stroke-width="1" opacity="0.30196078431372547" d="M 7.5 15 L 11 16.5 L 6.5 20 L 7.5 18 Q 10.1 18.7 9 16 L 7.5 15 Z " /><path fill="rgb(254,195,6)" stroke="rgb(254,195,6)" stroke-width="1" opacity="0.30196078431372547" d="M 40.5 16 L 41 18 L 49 22.5 L 47.5 22 L 40 17.5 L 40.5 16 Z " /><path fill="rgb(254,195,6)" stroke="rgb(254,195,6)" stroke-width="1" opacity="0.30196078431372547" d="M 4.5 20 L 3.5 22 L 1.5 23 L 2.5 21 L 4.5 20 Z " /><path fill="rgb(254,195,6)" stroke="rgb(254,195,6)" stroke-width="1" opacity="0.30196078431372547" d="M 5.5 22 Q 12.5 20.5 12 23.5 L 10 26.5 L 11.5 27 L 13.5 26 L 13.5 27 L 10.5 28 L 9 27.5 L 8.5 29 L 8 27.5 L 11 23.5 L 5.5 23 L 5.5 22 Z " /><path fill="rgb(254,195,6)" stroke="rgb(254,195,6)" stroke-width="1" opacity="0.30196078431372547" d="M 39.5 22 L 45 22.5 L 39 23.5 L 42 28.5 L 41 28.5 L 40.5 27 L 38.5 28 L 36 26.5 L 37.5 26 L 39.5 27 L 39 25.5 L 38 23.5 L 39.5 22 Z " /><path fill="rgb(216,242,245)" stroke="rgb(216,242,245)" stroke-width="1" opacity="1" d="M 24.5 6 L 27 7.5 L 22 10.5 Q 23 14.3 20 13 Q 19 8.3 22.5 7 L 24.5 6 Z " /><path fill="rgb(5,171,189)" stroke="rgb(5,171,189)" stroke-width="1" opacity="0.996078431372549" d="M 23.5 3 Q 31.6 2.9 34 8.5 Q 35.8 18.3 29.5 20 L 23.5 21 L 17 15.5 Q 15.7 6.2 21.5 4 L 23.5 3 Z M 25 6 L 23 7 Q 19 8 20 13 Q 23 14 22 11 L 27 8 L 25 6 Z " /><path fill="rgb(0,0,0)" stroke="rgb(0,0,0)" stroke-width="1" opacity="0" d="M 0 0 L 10.5 0 L 12 1.5 L 14 5.5 L 12.5 6 L 4.5 4 L 9.5 11 L 0 12 L 0 0 Z " /><path fill="rgb(0,0,0)" stroke="rgb(0,0,0)" stroke-width="1" opacity="0" d="M 14.5 0 Q 21.8 -2.3 20 3 L 14.5 1 L 14.5 0 Z " /><path fill="rgb(0,0,0)" stroke="rgb(0,0,0)" stroke-width="1" opacity="0" d="M 23.5 0 L 28 0.5 L 24.5 2 L 23.5 0 Z " /><path fill="rgb(0,0,0)" stroke="rgb(0,0,0)" stroke-width="1" opacity="0" d="M 31 0 L 37 0.5 L 31 3 L 31 0 Z " /><path fill="rgb(0,0,0)" stroke="rgb(0,0,0)" stroke-width="1" opacity="0" d="M 40.5 0 L 50 0 L 50 12 L 40 10.5 L 45.5 4 L 37.5 6 L 38 4.5 L 40.5 0 Z " /><path fill="rgb(0,0,0)" stroke="rgb(0,0,0)" stroke-width="1" opacity="0" d="M 0.5 13 L 9 16 Q 10.1 18.7 7.5 18 L 1 22.5 L 11 23.5 L 8 28.5 L 9.5 28 L 14.5 26 Q 17.3 27.2 15 28.5 L 15 33.5 L 17 37 L 19 37.5 L 19 49 L 32 49 L 32 37.5 L 34 37 L 34 35.5 Q 37.3 34.3 36 28.5 L 35.5 27 L 41.5 29 L 42 27.5 L 39 23.5 L 49 22.5 L 41 18 Q 39.8 15 43.5 16 L 49.5 13 L 50 50 L 0 50 L 0.5 13 Z " /><path fill="rgb(245,186,12)" stroke="rgb(245,186,12)" stroke-width="1" opacity="0.8705882352941177" d="M 2.5 12 Q 4.8 11.3 4 13.5 L 2.5 12 Z " /><path fill="rgb(245,186,12)" stroke="rgb(245,186,12)" stroke-width="1" opacity="0.8705882352941177" d="M 46 12 L 48 12.5 L 46 13.5 L 46 12 Z " /><path fill="rgb(245,186,12)" stroke="rgb(245,186,12)" stroke-width="1" opacity="0.8705882352941177" d="M 11.5 16 L 10.5 18 L 11.5 16 Z " /><path fill="rgb(245,186,12)" stroke="rgb(245,186,12)" stroke-width="1" opacity="0.8705882352941177" d="M 2.5 22 L 5 22.5 L 2.5 23 L 2.5 22 Z " /><path fill="rgb(245,186,12)" stroke="rgb(245,186,12)" stroke-width="1" opacity="0.8705882352941177" d="M 45.5 22 L 48 22.5 L 45.5 23 L 45.5 22 Z " /><path fill="rgb(245,186,12)" stroke="rgb(245,186,12)" stroke-width="1" opacity="0.8705882352941177" d="M 12.5 23 L 11.5 25 L 12.5 23 Z " /><path fill="rgb(101,70,60)" stroke="rgb(101,70,60)" stroke-width="1" opacity="0.9882352941176471" d="M 19.5 20 L 22.5 24 L 19.5 20 Z " /><path fill="rgb(101,70,60)" stroke="rgb(101,70,60)" stroke-width="1" opacity="0.9882352941176471" d="M 12.5 21 L 15 24.5 L 13 23.5 L 12.5 21 Z " /><path fill="rgb(101,70,60)" stroke="rgb(101,70,60)" stroke-width="1" opacity="0.9882352941176471" d="M 26.5 22 L 28 22.5 L 25.5 24 L 26.5 22 Z " /><path fill="rgb(101,70,60)" stroke="rgb(101,70,60)" stroke-width="1" opacity="0.9882352941176471" d="M 31.5 24 L 35 24.5 L 31.5 25 L 31.5 24 Z " /><path fill="rgb(101,70,60)" stroke="rgb(101,70,60)" stroke-width="1" opacity="0.9882352941176471" d="M 17.5 25 L 19 26.5 L 18.5 29 Q 14 27 17.5 25 Z " /><path fill="rgb(101,70,60)" stroke="rgb(101,70,60)" stroke-width="1" opacity="0.9882352941176471" d="M 31.5 33 L 32.5 35 L 30 34.5 L 31.5 33 Z " /><path fill="rgb(101,70,60)" stroke="rgb(101,70,60)" stroke-width="1" opacity="0.9882352941176471" d="M 19.5 34 Q 24.3 36.5 22.5 39 Q 24.8 38.3 24 40.5 L 21 38.5 L 22 37.5 L 19.5 34 Z " /><path fill="rgb(91,63,55)" stroke="rgb(91,63,55)" stroke-width="1" opacity="1" d="M 18.5 18 Q 20.7 22.3 28.5 21 L 32.5 18 L 29.5 22 Q 25.8 21.3 25 23.5 L 27 26.5 L 18.5 18 Z " /><path fill="rgb(91,63,55)" stroke="rgb(91,63,55)" stroke-width="1" opacity="1" d="M 15.5 24 L 24 31.5 L 25 33.5 L 16.5 26 Q 13.7 26.7 15.5 24 Z " /><path fill="rgb(91,63,55)" stroke="rgb(91,63,55)" stroke-width="1" opacity="1" d="M 33.5 25 L 36 25.5 L 33.5 26 L 33.5 25 Z " /><path fill="rgb(91,63,55)" stroke="rgb(91,63,55)" stroke-width="1" opacity="1" d="M 16.5 33 L 23 38.5 L 21.5 38 L 16.5 33 Z " /><path fill="rgb(91,63,55)" stroke="rgb(91,63,55)" stroke-width="1" opacity="1" d="M 30.5 33 Q 35 35 31.5 37 L 30.5 33 Z " /><path fill="rgb(254,192,7)" stroke="rgb(254,192,7)" stroke-width="1" opacity="0.996078431372549" d="M 13.5 1 L 20 4.5 L 15.5 12 L 13 13.5 L 11.5 16 L 4 14 L 4.5 12 L 11.5 12 L 6.5 5 L 15.5 7 L 14 4.5 L 13.5 1 Z " /><path fill="rgb(254,192,7)" stroke="rgb(254,192,7)" stroke-width="1" opacity="0.996078431372549" d="M 21.5 1 L 24 2.5 L 21 4 L 21.5 1 Z " /><path fill="rgb(254,192,7)" stroke="rgb(254,192,7)" stroke-width="1" opacity="0.996078431372549" d="M 29.5 1 L 30 3.5 L 28.5 3 L 27 2.5 L 29.5 1 Z " /><path fill="rgb(254,192,7)" stroke="rgb(254,192,7)" stroke-width="1" opacity="0.996078431372549" d="M 37.5 1 L 38 2.5 L 36 7 L 43.5 5 L 38.5 12 L 45.5 12 L 46 14 L 39.5 16 L 36.5 12 L 34 10.5 L 31 4.5 L 37.5 1 Z " /><path fill="rgb(254,192,7)" stroke="rgb(254,192,7)" stroke-width="1" opacity="0.996078431372549" d="M 11.5 17 L 11.5 22 L 4 21.5 L 11.5 17 Z " /><path fill="rgb(254,192,7)" stroke="rgb(254,192,7)" stroke-width="1" opacity="0.996078431372549" d="M 40.5 18 L 46 21.5 L 39 22 L 40.5 18 Z " /><path fill="rgb(254,192,7)" stroke="rgb(254,192,7)" stroke-width="1" opacity="0.996078431372549" d="M 12.5 24 Q 15.1 23.3 14 26 L 10.5 27 L 12.5 24 Z " /><path fill="rgb(254,192,7)" stroke="rgb(254,192,7)" stroke-width="1" opacity="0.996078431372549" d="M 37.5 24 L 39.5 27 L 36 25.5 L 37.5 24 Z " /><path fill="rgb(116,80,69)" stroke="rgb(116,80,69)" stroke-width="1" opacity="0.8784313725490196" d="M 23.5 24 L 25.5 27 L 23.5 24 Z " /><path fill="rgb(116,80,69)" stroke="rgb(116,80,69)" stroke-width="1" opacity="0.8784313725490196" d="M 16.5 34 L 18.5 37 L 16.5 34 Z " /><path fill="rgb(138,99,79)" stroke="rgb(138,99,79)" stroke-width="1" opacity="0.49019607843137253" d="M 15.5 26 Q 18.3 27.2 16 28.5 L 15.5 31 L 15 28.5 L 15.5 26 Z " /><path fill="rgb(138,99,79)" stroke="rgb(138,99,79)" stroke-width="1" opacity="0.49019607843137253" d="M 35.5 26 L 36 28.5 Q 37.3 33.8 34.5 35 L 35 33.5 Q 36.3 28.8 34 27.5 L 35.5 26 Z " /><path fill="rgb(138,99,79)" stroke="rgb(138,99,79)" stroke-width="1" opacity="0.49019607843137253" d="M 19.5 37 L 20 48.5 L 19 48.5 L 19.5 37 Z " /><path fill="rgb(138,99,79)" stroke="rgb(138,99,79)" stroke-width="1" opacity="0.49019607843137253" d="M 31.5 37 L 32 48.5 L 31 48.5 L 31.5 37 Z " /><path fill="rgb(135,96,80)" stroke="rgb(135,96,80)" stroke-width="1" opacity="0.996078431372549" d="M 19.5 5 L 18.5 7 L 19.5 5 Z " /><path fill="rgb(135,96,80)" stroke="rgb(135,96,80)" stroke-width="1" opacity="0.996078431372549" d="M 16.5 11 L 17 15.5 L 16 15.5 Q 17.1 12.2 14.5 13 L 13 13.5 L 16.5 11 Z " /><path fill="rgb(135,96,80)" stroke="rgb(135,96,80)" stroke-width="1" opacity="0.996078431372549" d="M 34.5 11 L 35 15.5 L 34 15.5 L 34.5 11 Z " /><path fill="rgb(135,96,80)" stroke="rgb(135,96,80)" stroke-width="1" opacity="0.996078431372549" d="M 36.5 12 L 37.5 14 L 36.5 12 Z " /><path fill="rgb(135,96,80)" stroke="rgb(135,96,80)" stroke-width="1" opacity="0.996078431372549" d="M 18.5 17 L 19.5 19 L 17 18.5 L 18.5 17 Z " /><path fill="rgb(135,96,80)" stroke="rgb(135,96,80)" stroke-width="1" opacity="0.996078431372549" d="M 32.5 17 L 33.5 19 L 31 18.5 L 32.5 17 Z " /><path fill="rgb(135,96,80)" stroke="rgb(135,96,80)" stroke-width="1" opacity="0.996078431372549" d="M 30.5 21 L 29.5 23 L 28 22.5 L 30.5 21 Z " /><path fill="rgb(135,96,80)" stroke="rgb(135,96,80)" stroke-width="1" opacity="0.996078431372549" d="M 14.5 22 L 16.5 25 L 14.5 22 Z " /><path fill="rgb(135,96,80)" stroke="rgb(135,96,80)" stroke-width="1" opacity="0.996078431372549" d="M 37.5 23 L 36.5 25 L 35 24.5 L 37.5 23 Z " /><path fill="rgb(135,96,80)" stroke="rgb(135,96,80)" stroke-width="1" opacity="0.996078431372549" d="M 18.5 25 L 24.5 32 L 18.5 25 Z " /><path fill="rgb(135,96,80)" stroke="rgb(135,96,80)" stroke-width="1" opacity="0.996078431372549" d="M 32.5 25 L 33.5 27 L 32.5 25 Z " /><path fill="rgb(135,96,80)" stroke="rgb(135,96,80)" stroke-width="1" opacity="0.996078431372549" d="M 27.5 26 L 26.5 28 L 27.5 26 Z " /><path fill="rgb(135,96,80)" stroke="rgb(135,96,80)" stroke-width="1" opacity="0.996078431372549" d="M 19.5 29 L 24.5 34 L 26 33.5 L 24.5 35 L 19.5 29 Z " /><path fill="rgb(135,96,80)" stroke="rgb(135,96,80)" stroke-width="1" opacity="0.996078431372549" d="M 34.5 33 L 33.5 35 L 34.5 33 Z " /><path fill="rgb(135,96,80)" stroke="rgb(135,96,80)" stroke-width="1" opacity="0.996078431372549" d="M 20.5 34 L 21.5 36 L 20.5 34 Z " /><path fill="rgb(135,96,80)" stroke="rgb(135,96,80)" stroke-width="1" opacity="0.996078431372549" d="M 24.5 40 L 25 42.5 L 24 42.5 L 24.5 40 Z " /><path fill="rgb(137,94,81)" stroke="rgb(137,94,81)" stroke-width="1" opacity="1" d="M 35.5 12 Q 39.9 13.6 39 20.5 L 36.5 24 L 30 24.5 L 35 28.5 Q 36 33 33.5 34 L 28.5 32 L 30 34.5 L 31 36.5 L 31 49 L 20 49 L 20 39 L 24 41.5 L 24.5 43 L 25 40.5 L 20.5 34 L 16 32 L 16 28 L 17.5 28 L 25.5 37 L 26 33.5 L 18.5 25 L 13 22 L 12 16.5 L 14.5 13 Q 17.1 12.2 16 15.5 L 17 18.5 L 27.5 29 L 28 26.5 L 26 23.5 Q 32.4 23.4 34 18.5 L 35.5 12 Z " /></svg>